<svg width="77" height="60" viewBox="0 0 77 60" fill="none" xmlns="http://www.w3.org/2000/svg">
<g clip-path="url(#clip0_96_7770)">
<path d="M32.6085 23.7495H22.3145V47.0789H32.6085V23.7495Z" fill="#D0DFF7"/>
<path d="M5.39526 24.7672L27.4651 3.55225L49.535 18.2604L71.6049 5.33915" stroke="#6D6E70" stroke-linecap="round" stroke-linejoin="round"/>
<path d="M10.5457 36.6709H0.251709V60.0003H10.5457V36.6709Z" fill="#D1E0F7"/>
<path d="M10.4377 24.7676C10.4377 27.5227 8.17892 29.751 5.4022 29.751C2.62548 29.751 0.366699 27.5156 0.366699 24.7676C0.366699 22.0196 2.62548 19.7842 5.4022 19.7842C8.17892 19.7842 10.4377 22.0196 10.4377 24.7676Z" fill="white" stroke="#6D6E70" stroke-linecap="round" stroke-linejoin="round"/>
<path d="M54.6783 30.1641H44.3843V53.4934H54.6783V30.1641Z" fill="#D1E0F7"/>
<path d="M49.5348 23.2441C52.3158 23.2441 54.5703 21.013 54.5703 18.2607C54.5703 15.5085 52.3158 13.2773 49.5348 13.2773C46.7537 13.2773 44.4993 15.5085 44.4993 18.2607C44.4993 21.013 46.7537 23.2441 49.5348 23.2441Z" fill="white" stroke="#6D6E70" stroke-linecap="round" stroke-linejoin="round"/>
<path d="M76.7481 17.2427H66.4541V40.5721H76.7481V17.2427Z" fill="#445B87"/>
<path d="M71.6046 10.3227C74.3856 10.3227 76.6401 8.0916 76.6401 5.33935C76.6401 2.5871 74.3856 0.355957 71.6046 0.355957C68.8236 0.355957 66.5691 2.5871 66.5691 5.33935C66.5691 8.0916 68.8236 10.3227 71.6046 10.3227Z" fill="white" stroke="#6D6E70" stroke-linecap="round" stroke-linejoin="round"/>
</g>
<defs>
<clipPath id="clip0_96_7770">
<rect width="77" height="60" fill="white"/>
</clipPath>
</defs>
</svg>
