<svg width="34" height="37" viewBox="0 0 34 37" fill="none" xmlns="http://www.w3.org/2000/svg">
<g clip-path="url(#clip0_79_1814)">
<path d="M33.3998 22.7117L23.6239 32.7796C23.3198 33.0929 22.9184 33.2539 22.5171 33.2539C22.1157 33.2539 21.7144 33.0972 21.4102 32.7796L16.8138 28.0459C16.2012 27.415 16.2012 26.3925 16.8138 25.7616C17.4264 25.1308 18.4192 25.1308 19.0317 25.7616L22.5213 29.3555L31.8409 19.7574C29.9356 17.2165 26.953 15.5762 23.6028 15.5762C17.8657 15.5762 13.2017 20.3839 13.2017 26.2881C13.2017 26.6927 13.2271 27.093 13.2693 27.4889H2.85555V9.88088H8.16593C8.95594 9.88088 9.59387 9.22389 9.59387 8.41028V2.9412H22.8044V12.7786C23.0663 12.7612 23.3324 12.7525 23.6028 12.7525C24.3041 12.7525 24.9927 12.809 25.6602 12.9178V1.4706C25.6602 0.656985 25.0223 0 24.2323 0H8.16593C8.16593 0 8.14903 0 8.14059 0C7.9716 0 7.80261 0.039158 7.6463 0.100071C7.62518 0.108772 7.60405 0.117474 7.58293 0.130527C7.52379 0.156632 7.46887 0.187088 7.41395 0.221896C7.39282 0.234948 7.37592 0.248001 7.3548 0.261054C7.28721 0.308913 7.21961 0.365475 7.15624 0.426388L0.417922 7.37041C0.358777 7.43568 0.303857 7.50094 0.257385 7.57491C0.244711 7.59666 0.232037 7.61406 0.219363 7.63582C0.185566 7.69238 0.155994 7.74894 0.130646 7.8055C0.122197 7.82726 0.109523 7.84901 0.101073 7.87512C0.0715007 7.95343 0.0461528 8.0361 0.0292542 8.11877C0.0123556 8.20578 0.0081309 8.28845 0.00390625 8.37547C0.00390625 8.38417 0.00390625 8.39722 0.00390625 8.40593V28.9552C0.00390625 29.7688 0.641829 30.4258 1.43184 30.4258H14.0129C15.5886 34.2807 19.2937 36.9956 23.6028 36.9956C29.3399 36.9956 34.0039 32.1923 34.0039 26.2837C34.0039 25.0307 33.7927 23.8255 33.404 22.7073L33.3998 22.7117Z" fill="#D2D6DF"/>
</g>
<defs>
<clipPath id="clip0_79_1814">
<rect width="34" height="37" fill="white"/>
</clipPath>
</defs>
</svg>
