<svg width="33" height="29" viewBox="0 0 33 29" fill="none" xmlns="http://www.w3.org/2000/svg">
<g clip-path="url(#clip0_96_7812)">
<path d="M30.321 15.5521C30.321 8.12524 24.1331 2.10449 16.5001 2.10449C8.86708 2.10449 2.6792 8.12524 2.6792 15.5521C2.6792 22.979 8.86708 28.9997 16.5001 28.9997C24.1331 28.9997 30.321 22.979 30.321 15.5521Z" fill="#EFEFEF"/>
<path d="M22.2173 12.7223L16.5 3.5752L10.7858 12.7252L3.11963 7.64676L4.99922 22.2187H28.0009L29.8835 7.64676L22.2173 12.7223Z" fill="white"/>
<path d="M28.0009 22.8795H4.99921C4.65829 22.8795 4.36865 22.6329 4.32642 22.3012L2.4438 7.72929C2.41062 7.47096 2.53431 7.21851 2.76361 7.08347C2.98988 6.94844 3.27951 6.95431 3.49976 7.10108L10.5746 11.7891L15.9177 3.23501C16.0414 3.03833 16.2617 2.91797 16.497 2.91797C16.7323 2.91797 16.9526 3.03833 17.0763 3.23501L22.4224 11.7891L29.4973 7.10108C29.7175 6.95431 30.0072 6.94844 30.2334 7.08347C30.4597 7.21851 30.5864 7.47096 30.5532 7.72929L28.6706 22.3012C28.6284 22.6329 28.3388 22.8795 27.9978 22.8795H28.0009ZM5.59959 21.5585H27.4035L29.0236 9.01504L22.6004 13.2686C22.4465 13.3714 22.2565 13.4066 22.0755 13.3684C21.8944 13.3303 21.7345 13.2216 21.638 13.0661L16.503 4.84661L11.3681 13.0661C11.2716 13.2216 11.1147 13.3303 10.9306 13.3684C10.7496 13.4066 10.5595 13.3684 10.4057 13.2686L3.98248 9.01211L5.60261 21.5556L5.59959 21.5585Z" fill="#595757"/>
<path d="M28.9423 23.3374C28.9423 24.2915 28.1458 25.0664 27.1653 25.0664H5.83805C4.85752 25.0664 4.06104 24.2915 4.06104 23.3374C4.06104 22.3834 4.85752 21.6084 5.83805 21.6084H27.1653C28.1458 21.6084 28.9423 22.3834 28.9423 23.3374Z" fill="white"/>
<path d="M27.1654 25.7273H5.83817C4.48353 25.7273 3.38232 24.6558 3.38232 23.3378C3.38232 22.0197 4.48353 20.9482 5.83817 20.9482H27.1654C28.52 20.9482 29.6212 22.0197 29.6212 23.3378C29.6212 24.6558 28.52 25.7273 27.1654 25.7273ZM5.83817 22.2692C5.23175 22.2692 4.73998 22.7477 4.73998 23.3378C4.73998 23.9278 5.23175 24.4063 5.83817 24.4063H27.1654C27.7718 24.4063 28.2636 23.9278 28.2636 23.3378C28.2636 22.7477 27.7718 22.2692 27.1654 22.2692H5.83817Z" fill="#595757"/>
<path d="M4.86028 7.03627C4.86028 5.91196 3.92501 5.00195 2.7695 5.00195C1.61398 5.00195 0.678711 5.91196 0.678711 7.03627C0.678711 8.16057 1.61398 9.07058 2.7695 9.07058C3.92501 9.07058 4.86028 8.16057 4.86028 7.03627Z" fill="#FFC966"/>
<path d="M2.76961 9.73141C1.24301 9.73141 0 8.52198 0 7.0366C0 5.55123 1.24301 4.3418 2.76961 4.3418C4.29622 4.3418 5.53922 5.55123 5.53922 7.0366C5.53922 8.52198 4.29622 9.73141 2.76961 9.73141ZM2.76961 5.66278C1.99122 5.66278 1.35765 6.27924 1.35765 7.0366C1.35765 7.79397 1.99122 8.41043 2.76961 8.41043C3.548 8.41043 4.18157 7.79397 4.18157 7.0366C4.18157 6.27924 3.548 5.66278 2.76961 5.66278Z" fill="#595757"/>
<path d="M32.3212 7.03627C32.3212 5.91196 31.3859 5.00195 30.2304 5.00195C29.0749 5.00195 28.1396 5.91196 28.1396 7.03627C28.1396 8.16057 29.0749 9.07058 30.2304 9.07058C31.3859 9.07058 32.3212 8.16057 32.3212 7.03627Z" fill="#FFC966"/>
<path d="M30.2305 9.73141C28.7039 9.73141 27.4609 8.52198 27.4609 7.0366C27.4609 5.55123 28.7039 4.3418 30.2305 4.3418C31.7572 4.3418 33.0002 5.55123 33.0002 7.0366C33.0002 8.52198 31.7572 9.73141 30.2305 9.73141ZM30.2305 5.66278C29.4522 5.66278 28.8186 6.27924 28.8186 7.0366C28.8186 7.79397 29.4522 8.41043 30.2305 8.41043C31.0089 8.41043 31.6425 7.79397 31.6425 7.0366C31.6425 6.27924 31.0089 5.66278 30.2305 5.66278Z" fill="#595757"/>
<path d="M18.5907 2.69447C18.5907 1.57017 17.6555 0.660156 16.5 0.660156C15.3445 0.660156 14.4092 1.57017 14.4092 2.69447C14.4092 3.81878 15.3445 4.72879 16.5 4.72879C17.6555 4.72879 18.5907 3.81878 18.5907 2.69447Z" fill="#FFC966"/>
<path d="M16.5001 5.38961C14.9735 5.38961 13.7305 4.18018 13.7305 2.69481C13.7305 1.20943 14.9735 0 16.5001 0C18.0267 0 19.2697 1.20943 19.2697 2.69481C19.2697 4.18018 18.0267 5.38961 16.5001 5.38961ZM16.5001 1.32098C15.7217 1.32098 15.0881 1.93744 15.0881 2.69481C15.0881 3.45217 15.7217 4.06863 16.5001 4.06863C17.2785 4.06863 17.912 3.45217 17.912 2.69481C17.912 1.93744 17.2785 1.32098 16.5001 1.32098Z" fill="#595757"/>
<path d="M18.3072 14.105C18.3072 15.5903 17.4987 16.7939 16.5001 16.7939C15.5014 16.7939 14.6929 15.5903 14.6929 14.105C14.6929 12.6196 15.5014 11.416 16.5001 11.416C17.4987 11.416 18.3072 12.6196 18.3072 14.105Z" fill="#FFC966"/>
<path d="M16.5002 17.4547C15.1063 17.4547 14.0142 15.984 14.0142 14.1053C14.0142 12.2266 15.1063 10.7559 16.5002 10.7559C17.894 10.7559 18.9862 12.2266 18.9862 14.1053C18.9862 15.984 17.894 17.4547 16.5002 17.4547ZM16.5002 12.0768C15.9662 12.0768 15.3718 12.9458 15.3718 14.1053C15.3718 15.2648 15.9662 16.1337 16.5002 16.1337C17.0342 16.1337 17.6285 15.2648 17.6285 14.1053C17.6285 12.9458 17.0312 12.0768 16.5002 12.0768Z" fill="#595757"/>
</g>
<defs>
<clipPath id="clip0_96_7812">
<rect width="33" height="29" fill="white"/>
</clipPath>
</defs>
</svg>
