<svg width="102" height="34" viewBox="0 0 102 34" fill="none" xmlns="http://www.w3.org/2000/svg">
<path d="M26.0131 16.227C23.0891 14.2188 19.3383 15.038 17.3712 18.0568C15.7259 20.5789 13.2452 20.8928 12.2841 20.8928C9.15551 20.8928 7.01369 18.6696 6.3786 16.3711C6.3722 16.3474 6.36794 16.3302 6.36155 16.3066C6.35515 16.2808 6.34663 16.255 6.34024 16.2292C6.09089 15.2702 6.02908 14.8101 6.02908 13.7909C6.02908 8.29305 11.6191 2.16948 19.6728 2.16948C27.7265 2.16948 32.641 8.50376 33.8579 12.0235C33.8366 11.9633 33.8174 11.8988 33.7961 11.8365C31.454 4.95175 24.9816 0 17.3627 0C7.77451 0 0 7.84367 0 17.5214C0 26.1714 6.1804 33.5764 14.7562 33.5764C21.5973 33.5764 26.1964 29.7062 28.3041 24.3717C29.4592 21.4561 28.6408 18.0267 26.0131 16.227Z" fill="#003668"/>
<path d="M33.9645 12.3654C32.9479 8.93164 28.1933 2.16948 19.6728 2.16948C11.617 2.16948 6.02908 8.2909 6.02908 13.7909C6.02908 14.8122 6.09089 15.2702 6.3381 16.2292C6.23368 15.8099 6.17827 15.3885 6.17827 14.9778C6.17827 9.24986 11.86 5.28287 17.7015 5.28287C25.6124 5.28287 32.023 11.7526 32.023 19.7296C32.023 25.9843 28.4554 31.3962 23.2703 34H23.2724C29.9536 31.5618 34.7274 25.1049 34.7274 17.5214C34.7274 15.726 34.4866 14.1436 33.9624 12.3654" fill="#E6002D"/>
<path d="M42.9602 11.1699V9.36596H52.6016V11.1699H48.4969L52.7721 16.4334L51.3229 17.6504L47.8576 13.3007L44.4498 17.9385L42.9431 16.7216L47.2182 11.1742H42.9623L42.9602 11.1699ZM56.312 22.2087C56.312 22.7806 56.1947 23.3139 55.9646 23.8148C55.7323 24.3137 55.4211 24.7566 55.0332 25.1372C54.6454 25.5156 54.1829 25.8188 53.6501 26.0402C53.1173 26.2617 52.5483 26.3735 51.9452 26.3735C51.3421 26.3735 50.7901 26.2617 50.2488 26.0402C49.7096 25.8188 49.2429 25.5177 48.855 25.1372C48.465 24.7566 48.156 24.3158 47.9237 23.8148C47.6914 23.3139 47.5741 22.7806 47.5741 22.2087C47.5741 21.6368 47.6914 21.1057 47.9237 20.6047C48.156 20.1037 48.465 19.6651 48.855 19.2824C49.2429 18.9039 49.7096 18.6008 50.2488 18.3793C50.7901 18.1578 51.3548 18.046 51.9452 18.046C52.5355 18.046 53.1152 18.1578 53.6501 18.3793C54.1829 18.6008 54.6454 18.9018 55.0332 19.2824C55.4211 19.6629 55.7344 20.1016 55.9646 20.6047C56.1969 21.1057 56.312 21.6389 56.312 22.2087ZM54.2596 22.1893C54.2596 21.555 54.0295 21.0111 53.5713 20.5552C53.1131 20.0994 52.5632 19.8715 51.9239 19.8715C51.2845 19.8715 50.756 20.0994 50.3042 20.5552C49.8524 21.0111 49.6265 21.555 49.6265 22.1893C49.6265 22.8236 49.8524 23.3827 50.3042 23.832C50.756 24.2814 51.2952 24.5072 51.9239 24.5072C52.5526 24.5072 53.1131 24.2814 53.5713 23.832C54.0295 23.3827 54.2596 22.8344 54.2596 22.1893ZM55.6513 14.1909H52.5249V12.3675H55.6513V8.87143H57.7441V17.859H55.6513V14.1909Z" fill="#595757"/>
<path d="M60.2184 19.5877H75.6587V21.4497H68.9754V25.8188H66.8847V21.4497H60.2184V19.5877ZM63.5132 11.3032H72.3469V9.15525H74.4163V17.3064H61.4609V9.15525H63.5132V11.3032ZM72.3469 13.1265H63.5132V15.4637H72.3469V13.1265Z" fill="#595757"/>
<path d="M89.0489 26.0295H78.4847V23.6493L84.5137 17.9858C84.6033 17.8977 84.7098 17.8009 84.8185 17.6956C85.7072 16.8506 87.052 15.5755 87.052 14.0274C87.052 12.4794 86.2251 10.555 83.8914 10.555C82.0309 10.555 80.7821 11.7548 80.5476 13.763L80.4922 14.1694L78.4889 13.8705L78.5529 13.4448C79.2348 9.16385 82.4657 8.70372 83.8211 8.70372C86.9966 8.70372 89.0467 10.8388 89.0467 14.1436C89.0467 16.255 87.6444 17.6483 86.517 18.7663L86.3295 18.9534L80.7778 24.1782H89.0489V26.0295Z" fill="#595757"/>
<path d="M101.672 20.9788H99.8028V8.93809H98.0318L90.2807 20.6971V22.8301H97.9167V26.0273H99.8006V22.8301H102V20.9788H101.67H101.672ZM92.3352 20.9788L97.921 12.3439V20.9788H92.3352Z" fill="#595757"/>
</svg>
