<svg width="100" height="43" viewBox="0 0 100 43" fill="none" xmlns="http://www.w3.org/2000/svg">
<path d="M17.869 1.15624C18.0946 1.08474 18.322 0.997352 18.562 1.00088C22.7118 1.00088 26.8616 1.00441 31.0114 1C31.7679 1.03354 32.5469 1.03089 33.2595 1.31865C33.6902 1.46518 34.0053 1.80149 34.35 2.07689C38.8365 5.92017 43.3104 9.77845 47.7968 13.6226C48.0744 13.8901 48.334 14.2414 48.2955 14.6457C48.3322 14.9299 48.1021 15.1479 47.8846 15.2936C47.4387 15.5487 46.906 15.5248 46.4091 15.5195C41.5448 15.5186 36.6797 15.5178 31.8154 15.5195C31.6444 15.5133 31.4474 15.5337 31.3176 15.4012C27.4901 12.0232 23.6411 8.66801 19.8083 5.29522C19.2057 4.93508 18.4322 4.73294 17.7481 4.98539C17.1617 5.17605 16.74 5.64124 16.2852 6.02698C13.0074 8.98049 9.73682 11.9393 6.43757 14.8707C6.2791 15.0164 6.10809 15.147 5.94246 15.2856C6.08661 15.3297 6.23702 15.3527 6.38922 15.3483C7.76264 15.3421 9.13696 15.3501 10.5104 15.3448C10.9213 15.3412 11.3439 15.4533 11.6752 15.6987C12.0441 15.9988 12.2768 16.4623 12.301 16.9327C12.3153 18.5516 12.2849 20.1722 12.3153 21.7911C12.2786 21.9888 12.5499 21.8917 12.66 21.9218C14.551 21.9138 16.4419 21.9306 18.3328 21.9129C18.3534 20.2835 18.3337 18.654 18.3426 17.0245C18.365 16.4984 18.6085 15.9626 19.0472 15.6475C19.5056 15.3651 20.0975 15.2503 20.6105 15.4586C21.3178 15.6643 21.7278 16.4164 21.7037 17.1146C21.7063 21.6437 21.7019 26.1737 21.7054 30.7037C21.7063 31.2757 21.4879 31.8954 20.9838 32.2193C20.5836 32.4559 20.0858 32.5751 19.6301 32.4391C18.8843 32.3253 18.3793 31.597 18.3453 30.8856C18.3301 28.9613 18.3561 27.037 18.3319 25.1127C16.3765 25.0968 14.4211 25.1057 12.4658 25.1074C12.267 25.0624 12.3207 25.2972 12.3037 25.4093C12.3037 27.0864 12.3028 28.7636 12.3037 30.4407C12.3252 30.9138 12.2733 31.4152 11.9903 31.8151C11.4111 32.6889 9.9329 32.7198 9.31334 31.8768C9.05548 31.5467 8.94715 31.1248 8.93999 30.7134C8.93462 26.4032 8.95163 22.093 8.93193 17.7837C8.23358 17.7739 7.53344 17.7678 6.83599 17.7837C6.33013 17.8499 5.8198 17.8172 5.31216 17.8234C4.29776 17.8234 3.28426 17.8251 2.27076 17.8234C1.83295 17.8251 1.34321 17.676 1.11759 17.2779C0.959114 17.0448 1.00119 16.7527 1.01731 16.4896C1.04238 16.0606 1.39603 15.7587 1.70223 15.4966C4.62455 12.8432 7.59164 10.2383 10.4916 7.56199C12.5544 5.68537 14.5957 3.78139 16.7248 1.97538C17.0856 1.6788 17.4061 1.29924 17.8681 1.15624H17.869Z" fill="#016CB7"/>
<path d="M65.2949 9.14275C65.516 9.10126 65.7416 9.10303 65.9655 9.12951C65.9691 10.3212 65.9986 11.5154 65.9511 12.7062C65.7354 12.7018 65.5205 12.6983 65.3065 12.6886C65.2859 11.5066 65.3092 10.3247 65.2949 9.14275Z" fill="#016CB7"/>
<path d="M72.9696 9.1454C73.1755 9.03065 73.4297 9.0686 73.6437 9.14716C73.6437 9.46846 73.641 9.78888 73.6509 10.1102C73.8711 10.1225 74.0914 10.1367 74.3125 10.1579C74.3313 10.3803 74.3295 10.6036 74.3098 10.8261C74.0887 10.849 73.8685 10.864 73.6482 10.8746C73.6088 12.0504 73.6276 13.2261 73.6419 14.4036C72.9248 14.4672 72.2023 14.4178 71.4833 14.4345C71.0545 14.4222 70.622 14.4619 70.1959 14.4089C70.1108 14.1759 70.1726 13.9146 70.1582 13.671C70.1806 13.1387 70.1126 12.6012 70.1941 12.0724C70.3266 12.0733 70.4591 12.0733 70.5925 12.0751C70.5674 12.1016 70.5155 12.1536 70.4904 12.1801C70.3982 12.1907 70.3078 12.2013 70.2182 12.2119C70.2209 12.9331 70.1959 13.6542 70.237 14.3745C71.3669 14.3683 72.4986 14.401 73.6285 14.3622C73.6196 14.0144 73.5023 13.6728 73.5578 13.3241C73.6294 12.956 73.5014 12.587 73.5515 12.2154C73.3411 12.1757 73.1316 12.1351 72.9203 12.1024C73.0036 12.068 73.0868 12.0327 73.1719 11.9974C72.8594 11.8818 72.9678 11.5357 72.9418 11.2904C72.9696 10.5763 72.8961 9.85597 72.9696 9.1454ZM73.0089 9.17982C72.9937 10.0457 72.9821 10.9117 72.9955 11.7785C73.1889 11.7688 73.4468 11.8985 73.6025 11.7467C73.6455 11.4148 73.6079 11.0794 73.6115 10.7466C73.8246 10.7431 74.0377 10.7387 74.2525 10.7369C74.2517 10.5745 74.2525 10.4112 74.2534 10.2497C74.0386 10.2452 73.8264 10.2426 73.6133 10.2382C73.6187 9.88333 73.6222 9.52849 73.6106 9.17364C73.4091 9.17188 73.2086 9.17453 73.0089 9.17982Z" fill="#4899D1"/>
<path d="M78.7282 9.14098C78.944 9.1198 79.1911 9.05095 79.3899 9.16482C79.4123 10.9311 79.4141 12.7009 79.3899 14.4681C79.1705 14.4672 78.953 14.4637 78.7354 14.4557C78.722 12.6841 78.7354 10.9126 78.7291 9.14098H78.7282Z" fill="#016CB7"/>
<path d="M83.8942 9.1454C84.1208 9.06772 84.3643 9.11803 84.598 9.13657C84.5881 10.9117 84.6212 12.6894 84.581 14.4637C84.3518 14.4645 84.1234 14.4654 83.8969 14.4698C83.8486 13.4856 83.8889 12.4988 83.8772 11.5137C83.5755 11.4731 83.2675 11.5181 82.9703 11.466C82.8995 11.2383 82.9166 10.9999 82.9533 10.7687C83.2568 10.7643 83.5612 10.7643 83.8665 10.7493C83.8987 10.2152 83.845 9.67855 83.8942 9.1454Z" fill="#016CB7"/>
<path d="M54.5546 9.13833C54.7901 9.09773 55.0309 9.10303 55.2682 9.13657C55.2834 10.4085 55.2933 11.684 55.2637 12.9551C55.0318 12.9851 54.7973 12.9878 54.5663 12.9587C54.5412 11.6858 54.5627 10.4121 54.5546 9.13833Z" fill="#016CB7"/>
<path d="M59.8111 9.13216C60.0376 9.11009 60.2668 9.11097 60.4951 9.13127C60.496 10.8896 60.4772 12.6488 60.5031 14.4072C60.2775 14.4893 60.0304 14.4866 59.8048 14.4116C59.8093 13.4918 59.8379 12.5712 59.7887 11.6531C59.555 11.6302 59.2918 11.7123 59.0787 11.6099C58.9739 11.4139 59.0518 11.1606 59.0393 10.9426C59.2837 10.9302 59.5299 10.9311 59.7761 10.9346C59.8513 10.3362 59.7967 9.73239 59.8111 9.13216Z" fill="#016CB7"/>
<path d="M89.1542 14.4178C89.1301 12.655 89.1292 10.887 89.1551 9.12245C89.3664 9.11362 89.5777 9.11362 89.7908 9.12068C89.8266 10.8914 89.8033 12.6647 89.8025 14.4363C89.5876 14.4575 89.3584 14.5087 89.1542 14.4178Z" fill="#016CB7"/>
<path d="M51.9985 9.3034C52.6172 9.16128 53.3209 9.44022 53.5931 10.0219C53.8626 10.6433 53.7059 11.5049 53.072 11.8518C52.4148 12.2684 51.3798 12.0045 51.1005 11.2568C50.7173 10.5127 51.1793 9.5073 51.9985 9.3034ZM52.1776 10.0175C51.6207 10.1517 51.5616 11.0361 52.0818 11.2586C52.4193 11.4775 52.8508 11.1933 52.944 10.849C53.1105 10.4156 52.6628 9.83214 52.1776 10.0175Z" fill="#016CB7"/>
<path d="M64.1999 9.22043C64.4139 9.21336 64.6297 9.21601 64.8454 9.23102C64.866 10.0634 64.8454 10.8958 64.8571 11.7282C64.8445 11.8597 64.875 12.0089 64.8007 12.128C64.6467 12.1545 64.4891 12.1333 64.336 12.1342C64.345 12.6224 64.5679 13.0849 64.9538 13.3921C65.2447 13.6533 65.6235 13.7743 65.9807 13.9199C65.8822 14.1044 65.7909 14.2986 65.6396 14.4478C65.1749 14.4054 64.7684 14.1071 64.4085 13.8334C64.2241 13.7125 64.1104 13.3506 63.8489 13.4494C63.4747 13.9614 62.8981 14.3145 62.2803 14.4637C62.138 14.2995 62.0135 14.1212 61.9312 13.9208C62.4549 13.739 62.9885 13.4883 63.3055 13.0152C63.4944 12.8015 63.4971 12.5102 63.5795 12.2534C63.8149 12.2613 64.0522 12.2551 64.2876 12.2287C64.0755 11.7538 64.2205 11.2233 64.1802 10.7228C63.8651 10.7131 63.5508 10.7192 63.2374 10.7007C63.2177 10.4721 63.2213 10.2426 63.2455 10.0157C63.5517 9.99279 63.8597 9.99985 64.1668 9.99632C64.1748 9.73769 64.1802 9.47817 64.1999 9.22043Z" fill="#016CB7"/>
<path d="M69.6614 9.31399C69.8861 9.26456 70.1171 9.26721 70.3436 9.31664C70.3472 9.86744 70.3212 10.4191 70.3606 10.9691C71.118 11.0291 71.8737 10.9373 72.6249 10.8481C72.6464 11.0662 72.6419 11.2868 72.5944 11.5022C71.6257 11.6549 70.6319 11.7008 69.6551 11.6072C69.6667 10.8428 69.6587 10.0784 69.6614 9.31399Z" fill="#016CB7"/>
<path d="M73.0089 9.17982C73.2086 9.17453 73.4091 9.17188 73.6106 9.17364C73.6222 9.52849 73.6187 9.88333 73.6133 10.2382C73.8264 10.2426 74.0386 10.2452 74.2534 10.2497C74.2525 10.4112 74.2517 10.5745 74.2525 10.7369C74.0377 10.7387 73.8246 10.7431 73.6115 10.7466C73.6079 11.0794 73.6455 11.4148 73.6025 11.7467C73.4468 11.8985 73.1889 11.7688 72.9955 11.7785C72.9821 10.9117 72.9937 10.0457 73.0089 9.17982Z" fill="#016CB7"/>
<path d="M77.6959 10.8773C77.7729 10.3238 77.6342 9.75181 77.7873 9.21072C77.9878 9.21336 78.1884 9.21601 78.3898 9.22043C78.3997 10.8755 78.405 12.5305 78.3862 14.1847C78.1642 14.198 77.9422 14.1962 77.7237 14.1609C77.7031 13.3073 77.7568 12.4511 77.6888 11.6002C77.4838 11.5975 77.2796 11.5949 77.0764 11.5905C77.0477 11.3583 77.0504 11.1244 77.0764 10.8931C77.2823 10.887 77.4882 10.8825 77.6959 10.8773Z" fill="#016CB7"/>
<path d="M92.8618 9.41285C93.1008 9.36431 93.3667 9.3546 93.5995 9.43845C93.6299 9.58145 93.6147 9.72974 93.6219 9.87539C93.6067 10.3944 93.877 10.9011 94.2862 11.2206C94.6139 11.496 94.9944 11.699 95.3678 11.9065C95.2505 12.1051 95.1036 12.2843 94.9407 12.4493C94.5718 12.2551 94.1806 12.0883 93.8672 11.8111C93.6147 11.5949 93.4142 11.3283 93.1554 11.1209C92.825 11.7017 92.2431 12.1033 91.6343 12.362C91.3326 12.4714 91.2018 12.0707 91.038 11.9003C91.6396 11.541 92.3846 11.2409 92.6612 10.548C92.8528 10.1967 92.7937 9.78447 92.8618 9.41285Z" fill="#016CB7"/>
<path d="M61.7763 9.47553C61.9392 9.3087 62.2275 9.41197 62.4406 9.40844C62.4567 10.044 62.4236 10.6804 62.4567 11.316C62.9321 11.3186 63.404 11.2409 63.8785 11.2136C63.8964 11.4395 64.0217 11.8509 63.6941 11.9056C63.0557 11.9603 62.4102 12.0433 61.7709 11.9541C61.7664 11.1279 61.7521 10.3008 61.7763 9.47553Z" fill="#016CB7"/>
<path d="M81.4133 9.40668C81.6542 9.37843 81.8977 9.38019 82.1403 9.40844C82.1439 10.2426 82.0723 11.1394 82.4958 11.8977C82.75 12.2737 83.0625 12.6224 83.4591 12.8571C83.392 13.0628 83.2541 13.2402 83.0876 13.3788C82.8405 13.4124 82.6802 13.1749 82.5128 13.0363C82.2182 12.7839 82.0168 12.4529 81.7661 12.1625C81.4742 12.6938 81.0973 13.1864 80.5887 13.5324C80.3703 13.4274 80.1849 13.2605 80.0703 13.0496C80.2646 12.7556 80.6218 12.5941 80.8287 12.2984C81.5055 11.4934 81.4241 10.3865 81.4133 9.40668Z" fill="#016CB7"/>
<path d="M75.8068 9.55673C76.0351 9.54614 76.2652 9.54614 76.4935 9.58233C76.5034 10.3865 76.4156 11.2409 76.7738 11.9895C76.9573 12.3178 77.1919 12.6188 77.4694 12.8757C77.3235 13.0549 77.1847 13.3082 76.9349 13.3444C76.5822 13.099 76.3762 12.6912 76.1399 12.3425C75.8704 12.7689 75.6403 13.2376 75.2401 13.5651C75.0351 13.4336 74.7817 13.325 74.6921 13.0814C75.2446 12.5544 75.626 11.8553 75.7316 11.1023C75.8265 10.5904 75.7057 10.0669 75.8068 9.55673Z" fill="#016CB7"/>
<path d="M87.6412 9.57527C87.8704 9.57086 88.1354 9.48435 88.3431 9.60881C88.361 10.8755 88.3753 12.1466 88.335 13.4132C87.4818 13.3885 86.6214 13.4627 85.7735 13.37C85.7771 12.1042 85.7807 10.8393 85.7717 9.57351C85.9982 9.55056 86.2265 9.55144 86.4548 9.57615C86.4566 9.96189 86.4504 10.3485 86.4701 10.7343C86.8515 10.7828 87.2374 10.7696 87.6206 10.744C87.6412 10.3547 87.6206 9.96454 87.6412 9.57527ZM86.4763 12.7336C86.8577 12.7548 87.2409 12.7539 87.6241 12.7362C87.6367 12.3002 87.6403 11.8641 87.6224 11.4289C87.2409 11.4219 86.8613 11.421 86.4817 11.4289C86.4396 11.8623 86.4468 12.2993 86.4763 12.7345V12.7336Z" fill="#016CB7"/>
<path d="M56.5351 9.62029C57.2522 9.59646 57.9703 9.61146 58.6883 9.61058C59.0733 9.58057 58.8763 10.0696 58.9113 10.2973C58.3445 10.3503 57.7742 10.3044 57.2066 10.3317C57.186 10.5851 57.1869 10.8402 57.2084 11.0944C57.7312 11.1156 58.2541 11.0988 58.7779 11.097C58.8235 11.3354 58.8199 11.5799 58.7877 11.82C58.2621 11.8156 57.7357 11.8156 57.2102 11.8209C57.1842 12.1113 57.1851 12.4034 57.2093 12.6938C57.9219 12.738 58.6283 12.6303 59.3356 12.5756C59.3706 12.7812 59.3768 12.9904 59.3652 13.1988C58.4323 13.4044 57.4653 13.3868 56.5163 13.3373C56.5315 12.0989 56.4948 10.8587 56.5351 9.62029Z" fill="#016CB7"/>
<path d="M52.1776 10.0175C52.6628 9.83214 53.1105 10.4156 52.944 10.849C52.8508 11.1933 52.4193 11.4775 52.0818 11.2586C51.5616 11.0361 51.6207 10.1517 52.1776 10.0175Z" fill="#FDFDFD"/>
<path d="M86.4763 12.7336C86.4468 12.2984 86.4396 11.8615 86.4817 11.4281C86.8613 11.421 87.241 11.4219 87.6224 11.4281C87.6403 11.8632 87.6367 12.2993 87.6241 12.7353C87.241 12.753 86.8577 12.7539 86.4763 12.7327V12.7336Z" fill="#FDFDFD"/>
<path d="M70.5925 12.0751C70.6614 12.0795 70.7975 12.0874 70.8656 12.0918C70.896 12.2887 70.8647 12.5041 70.9363 12.6903C71.5908 12.7089 72.247 12.6956 72.9024 12.6947C72.9087 12.497 72.9114 12.2993 72.9203 12.1024C73.1316 12.1351 73.3411 12.1757 73.5515 12.2154C73.5014 12.587 73.6294 12.956 73.5578 13.3241C73.5023 13.6728 73.6196 14.0144 73.6285 14.3622C72.4986 14.401 71.3669 14.3683 70.237 14.3745C70.1959 13.6542 70.2209 12.9331 70.2182 12.2119C70.3078 12.2013 70.3982 12.1907 70.4904 12.1801C70.5155 12.1536 70.5674 12.1016 70.5925 12.0751ZM70.8996 13.3267C70.9005 13.4671 70.9058 13.6083 70.9157 13.7487C71.5684 13.7363 72.2264 13.7831 72.8773 13.7275C72.9257 13.5986 72.897 13.4574 72.9024 13.3241C72.2345 13.3064 71.5666 13.3029 70.8996 13.3267Z" fill="#016CB7"/>
<path d="M51.7066 12.6153C51.9385 12.6179 52.2581 12.482 52.4282 12.693C52.4632 13.0028 52.4014 13.317 52.4471 13.6277C52.4775 13.6428 52.5384 13.6745 52.5688 13.6895C53.5125 13.7151 54.4579 13.6648 55.4007 13.716C55.4025 13.919 55.4016 14.1229 55.3989 14.3268C54.175 14.3789 52.9457 14.3498 51.7201 14.3427C51.661 13.769 51.7021 13.1908 51.7066 12.6153Z" fill="#016CB7"/>
<path d="M90.7882 13.1423C92.2297 13.1343 93.6711 13.1449 95.1126 13.137C95.2737 13.1493 95.4573 13.1061 95.6059 13.189C95.6471 13.3779 95.6247 13.573 95.6292 13.7654C94.7768 13.8528 93.9147 13.7813 93.0587 13.8043C92.3013 13.8008 91.543 13.8096 90.7855 13.7999C90.7488 13.5818 90.7497 13.3594 90.7882 13.1423Z" fill="#016CB7"/>
<path d="M70.8996 13.3267C71.5666 13.3029 72.2345 13.3064 72.9024 13.3241C72.897 13.4574 72.9257 13.5986 72.8773 13.7275C72.2264 13.7831 71.5684 13.7363 70.9157 13.7487C70.9058 13.6083 70.9005 13.4671 70.8996 13.3267Z" fill="#FDFDFD"/>
<path d="M67.0005 18.3387C67.1258 17.8938 67.535 17.5619 67.9826 17.4613C68.4437 17.4039 68.9612 17.4145 69.3435 17.712C69.7769 18.0465 69.9192 18.6265 69.895 19.1473C69.904 19.6839 69.8673 20.2224 69.9156 20.7582C70.3892 20.767 70.8691 20.7185 71.3392 20.7926C71.7779 20.8712 72.1432 21.2587 72.1324 21.7089C72.1692 22.1255 72.0787 22.6525 71.6373 22.8317C71.0939 23.0532 70.4842 23.0108 69.9076 23.0356C69.8735 25.0049 69.904 26.9759 69.8923 28.9452C69.8986 29.2515 69.9676 29.6646 70.3158 29.7653C70.7259 29.8474 71.1691 29.7255 71.5621 29.9109C72.0384 30.1051 72.1897 30.6806 72.1253 31.144C72.1154 31.6269 71.7752 32.062 71.3311 32.2439C70.8996 32.4372 70.417 32.4548 69.955 32.5105C69.1806 32.4398 68.3264 32.3851 67.7149 31.852C67.0416 31.257 66.8653 30.3231 66.8635 29.4713C66.859 27.3281 66.8796 25.1849 66.8536 23.0417C66.4534 22.9941 66.0317 23.01 65.6557 22.8564C65.166 22.5748 65.114 21.9348 65.2233 21.4414C65.2994 21.1024 65.5921 20.8376 65.9359 20.7767C66.2385 20.7344 66.5456 20.7529 66.8509 20.7547C66.9288 19.9514 66.739 19.1181 67.0005 18.3387Z" fill="#016CB7"/>
<path d="M28.3621 19.902C29.8241 19.7528 31.4017 20.1112 32.5065 21.1069C33.9471 22.37 34.5156 24.3578 34.4601 26.208C34.5031 27.4561 34.2622 28.7228 33.7152 29.8527C33.1681 30.9101 32.2272 31.8025 31.0641 32.1609C30.3918 32.4178 29.663 32.4469 28.953 32.5158C28.089 32.4398 27.1928 32.3763 26.4058 31.9817C25.5123 31.6004 24.8023 30.881 24.3224 30.0574C23.787 29.1315 23.5551 28.0687 23.462 27.0165C23.385 25.8037 23.4512 24.5582 23.8828 23.4089C24.1791 22.6269 24.5883 21.8589 25.2195 21.2878C26.0378 20.4519 27.1955 19.985 28.3621 19.902ZM28.4507 22.4539C27.5509 22.6445 26.9555 23.4469 26.7201 24.2819C26.378 25.5018 26.3789 26.8153 26.7227 28.0343C26.9331 28.7131 27.3369 29.3831 27.9887 29.7255C28.7471 30.1325 29.7829 30.0098 30.3864 29.3875C30.8734 28.9505 31.1465 28.3282 31.2772 27.7024C31.5029 26.7544 31.5154 25.7587 31.3202 24.8045C31.1931 24.093 30.903 23.3701 30.3354 22.889C29.8304 22.4459 29.1007 22.3162 28.4507 22.4539Z" fill="#016CB7"/>
<path d="M36.8971 19.9117C37.4012 19.7828 37.9751 19.9214 38.3073 20.331C38.7048 20.745 38.6582 21.3478 38.7048 21.8739C38.7272 21.8192 38.7496 21.7654 38.7737 21.7124C39.2115 21.3099 39.5464 20.79 40.08 20.4952C41.269 19.7351 42.9862 19.5904 44.1403 20.4925C44.5799 20.7935 44.8449 21.2728 45.0634 21.7415C45.1099 21.7503 45.203 21.7662 45.2496 21.7751C45.7483 21.0151 46.4583 20.3663 47.3348 20.0626C48.3017 19.7696 49.368 19.8093 50.3126 20.1641C50.9366 20.3972 51.4703 20.8518 51.7908 21.4308C52.2957 22.2835 52.3871 23.2977 52.3665 24.2652C52.3736 26.3474 52.353 28.4297 52.3772 30.5111C52.841 30.5191 53.3074 30.5517 53.7685 30.4882C53.8563 30.174 53.9315 29.8562 53.9924 29.5366C54.4024 29.9683 54.9754 30.2207 55.3407 30.6939C55.5305 30.9084 55.7311 31.1158 55.9674 31.2826C56.1376 31.3983 56.1617 31.6225 56.2459 31.7946C56.288 31.7416 56.3301 31.6904 56.3739 31.6392C56.4635 31.8078 56.5798 31.9623 56.7222 32.0938C56.7303 32.2306 56.7356 32.3683 56.7374 32.5069C56.7204 32.5387 56.6873 32.6005 56.6703 32.6314C56.7419 33.6077 57.0955 34.6413 57.9174 35.2477C58.3624 35.5902 58.9247 35.7147 59.4762 35.7623C59.726 35.7261 59.9767 35.6926 60.231 35.6891C60.5148 36.0907 60.8254 36.4835 61.2337 36.7713L61.2516 36.7298C61.4898 37.0899 61.8291 37.368 62.1989 37.5913C61.146 38.0185 59.9946 38.2454 58.8566 38.128C57.4671 38.0882 56.0838 37.5012 55.1724 36.4544C54.2636 35.464 53.8214 34.1382 53.696 32.8273C53.6808 32.6949 53.6709 32.4699 53.4785 32.5131C52.6754 32.5219 51.8714 32.4857 51.0709 32.5519C50.7415 32.5431 50.4183 32.4478 50.1067 32.3489C49.599 32.138 49.3609 31.573 49.3609 31.0567C49.3501 28.9391 49.3636 26.8206 49.3546 24.7021C49.3054 24.1469 49.1979 23.5555 48.8219 23.1177C48.522 22.8193 48.0904 22.6348 47.6598 22.6781C46.76 22.7134 46.0124 23.4425 45.7635 24.2634C45.6131 24.6862 45.5871 25.1373 45.6032 25.5813C45.6068 27.2893 45.6005 28.9973 45.6059 30.7062C45.6247 31.2403 45.5164 31.8564 45.0678 32.2095C44.5217 32.6031 43.7186 32.5926 43.1536 32.2404C42.7436 31.9623 42.6182 31.4344 42.5815 30.9728C42.5806 28.8817 42.5806 26.7897 42.5815 24.6977C42.5502 24.2104 42.4857 23.6949 42.184 23.2889C41.8814 22.8352 41.303 22.603 40.7631 22.6869C40.1149 22.7919 39.516 23.2086 39.2223 23.7929C38.917 24.3049 38.8463 24.9095 38.8418 25.493C38.8463 27.2602 38.8391 29.0273 38.8454 30.7936C38.8758 31.3568 38.7075 32.0064 38.1757 32.3021C37.5677 32.6005 36.7333 32.5784 36.2364 32.0841C35.8854 31.7169 35.8263 31.1891 35.8013 30.7089C35.7995 27.8533 35.8013 24.9969 35.8004 22.1414C35.7932 21.7857 35.7896 21.4264 35.8783 21.0795C35.9463 20.5428 36.3412 20.0185 36.8971 19.9117Z" fill="#016CB7"/>
<path d="M74.3287 21.151C75.2741 20.2957 76.5741 19.9408 77.8302 19.8737C78.8572 19.849 79.9065 19.9346 80.8788 20.2807C81.7741 20.5958 82.5835 21.2693 82.8736 22.1838C83.1055 22.8546 83.0168 23.5705 83.0338 24.266C83.0329 25.8231 83.0338 27.3811 83.0329 28.9391C83.0177 29.5658 83.1449 30.1845 83.298 30.7901C83.3929 31.2111 83.34 31.709 83.0222 32.0312C82.3462 32.8203 80.8913 32.5581 80.458 31.6445C80.2897 31.3541 80.2664 31.016 80.2019 30.6956C79.876 30.8863 79.6656 31.2067 79.3693 31.4318C78.6101 32.0462 77.6494 32.4142 76.6681 32.4619C76.2214 32.559 75.7674 32.4743 75.3278 32.3825C74.249 32.1362 73.3322 31.3038 72.9722 30.2755C72.7412 29.6814 72.7851 29.0379 72.8048 28.4156C72.8782 27.4314 73.4208 26.4816 74.2866 25.9714C75.4451 25.2741 76.84 25.1973 78.1517 25.0243C78.6772 24.9369 79.2753 24.9554 79.7104 24.6076C80.0426 24.2387 80.1303 23.6552 79.8931 23.2156C79.6853 22.784 79.218 22.543 78.7632 22.4459C77.9422 22.3117 77.0245 22.445 76.4022 23.0303C75.9375 23.3948 75.6492 23.9853 75.0565 24.1742C74.3179 24.4223 73.4486 23.8088 73.4674 23.0347C73.3966 22.3082 73.8103 21.6321 74.3287 21.151ZM76.5177 27.6424C75.7809 28.0007 75.5722 29.0679 76.1059 29.6752C76.5437 30.1775 77.2895 30.3258 77.926 30.1845C78.7614 30.0618 79.4991 29.4846 79.8322 28.7228C80.107 28.0678 80.0059 27.3546 80.0229 26.667C78.9494 27.2911 77.6046 27.0651 76.5177 27.6424Z" fill="#016CB7"/>
<path d="M84.8952 20.361C85.3169 19.9073 86.0546 19.7113 86.6214 20.0105C86.9625 20.1677 87.1532 20.5075 87.3269 20.8191C87.8766 21.7786 88.3467 22.7822 88.925 23.7258C89.3673 22.9508 89.7783 22.159 90.208 21.3779C90.4542 20.9497 90.6432 20.4678 91.0272 20.1368C91.4409 19.8296 92.0479 19.7713 92.4974 20.0406C92.9826 20.2912 93.2441 20.8306 93.2736 21.354C93.253 21.8121 93.1133 22.2641 92.8519 22.6454C92.1903 23.7797 91.4785 24.8866 90.8356 26.0306C91.0899 26.6211 91.491 27.141 91.799 27.7077C92.2315 28.4315 92.6675 29.1536 93.1008 29.8765C93.5279 30.5535 93.4849 31.5563 92.8671 32.1097C92.3657 32.5917 91.491 32.6332 90.9852 32.1362C90.5769 31.6904 90.3316 31.1308 90.0227 30.6188C89.6494 29.9533 89.2984 29.2754 88.9071 28.6204C88.8624 28.5101 88.7406 28.5268 88.6475 28.518C88.2097 29.4802 87.6224 30.3681 87.1335 31.3056C86.8971 31.7531 86.6285 32.2615 86.0985 32.416C85.6929 32.6049 85.2318 32.4637 84.8764 32.2377C84.4046 31.9614 84.2031 31.3983 84.1754 30.8836C84.2085 30.4855 84.3911 30.1228 84.5971 29.7873C85.3196 28.6151 86.0099 27.4243 86.7387 26.2565C86.9204 26.0041 86.676 25.7534 86.5524 25.5415C86.0081 24.6129 85.4646 23.6835 84.9113 22.761C84.7403 22.4494 84.504 22.1582 84.4556 21.7971C84.3535 21.2808 84.5639 20.7555 84.8952 20.361Z" fill="#016CB7"/>
<path d="M28.4507 22.4539C29.1007 22.3162 29.8304 22.4459 30.3354 22.889C30.903 23.3701 31.1931 24.093 31.3202 24.8045C31.5154 25.7587 31.5029 26.7544 31.2772 27.7024C31.1465 28.3282 30.8734 28.9505 30.3864 29.3875C29.7829 30.0098 28.7471 30.1325 27.9887 29.7255C27.3369 29.3831 26.9331 28.7131 26.7227 28.0343C26.3789 26.8153 26.378 25.5018 26.7201 24.2819C26.9555 23.4469 27.5509 22.6445 28.4507 22.4539Z" fill="#FDFDFD"/>
<path d="M57.4796 25.7896C58.4779 25.5274 59.5389 25.4347 60.5524 25.6731C61.787 25.9255 62.9106 26.6537 63.6341 27.6715C64.3691 28.6672 64.7299 29.9162 64.6879 31.144C64.6968 31.566 64.6547 32.0779 64.2733 32.3445C63.977 32.3339 63.6672 32.3498 63.387 32.243C63.1327 32.0806 62.9653 31.822 62.7602 31.6083C62.4737 31.2791 62.1049 31.0408 61.762 30.7786C61.847 30.6568 61.9285 30.5332 62.0019 30.4052C61.9455 30.3708 61.8327 30.3011 61.7763 30.2666C61.6348 29.1721 60.8084 28.157 59.6839 27.9425C59.3885 27.8675 59.0769 27.8701 58.7886 27.7721C58.2389 27.1834 57.7017 26.5672 57.0329 26.1038C57.169 26.0579 57.3051 26.0129 57.4429 25.9679C57.4501 25.9317 57.4653 25.8593 57.4725 25.8231L57.4796 25.7896Z" fill="#12ADE1"/>
<path d="M56.3605 26.306C56.715 26.1135 57.0741 25.9132 57.4725 25.8231C57.4653 25.8593 57.4501 25.9317 57.4429 25.9679C57.3051 26.0129 57.169 26.0579 57.0329 26.1038C57.7017 26.5672 58.2389 27.1834 58.7886 27.7721C59.0769 27.8701 59.3885 27.8675 59.6839 27.9425C58.9247 27.8754 58.1055 28.0961 57.5808 28.6645C57.1215 29.1809 56.8234 29.8315 56.7186 30.5103C58.4135 30.527 60.1083 30.5226 61.8022 30.5103C61.796 30.4494 61.7825 30.3284 61.7763 30.2675C61.8327 30.3019 61.9455 30.3717 62.0019 30.4061C61.9285 30.5341 61.847 30.6577 61.762 30.7795C62.1049 31.0416 62.4737 31.28 62.7602 31.6092C62.9653 31.8228 63.1327 32.0815 63.387 32.2439C63.6672 32.3507 63.977 32.3348 64.2733 32.3454C64.0656 32.4557 63.8373 32.529 63.5991 32.5149C61.3116 32.5007 59.0241 32.5237 56.7374 32.5078C56.7356 32.3692 56.7303 32.2315 56.7222 32.0947C56.5798 31.9632 56.4635 31.8087 56.3739 31.6401C56.3301 31.6913 56.288 31.7425 56.2459 31.7955C56.1617 31.6233 56.1376 31.3991 55.9674 31.2835C55.7311 31.1167 55.5305 30.9092 55.3407 30.6947C54.9754 30.2216 54.4024 29.9692 53.9924 29.5375C54.3872 28.2453 55.1652 27.0112 56.3605 26.3068V26.306Z" fill="#4899D1"/>
<path d="M76.5177 27.6424C77.6046 27.0651 78.9494 27.2911 80.0229 26.667C80.0059 27.3546 80.107 28.0678 79.8322 28.7228C79.4991 29.4846 78.7614 30.0618 77.926 30.1845C77.2895 30.3258 76.5437 30.1775 76.1059 29.6752C75.5722 29.0679 75.7809 28.0007 76.5177 27.6424Z" fill="#FDFDFD"/>
<path d="M57.5808 28.6645C58.1055 28.0961 58.9247 27.8754 59.6839 27.9425C60.8084 28.157 61.6348 29.1721 61.7763 30.2666C61.7825 30.3275 61.796 30.4485 61.8022 30.5094C60.1083 30.5226 58.4135 30.527 56.7186 30.5094C56.8234 29.8306 57.1215 29.18 57.5808 28.6637L57.5808 28.6645Z" fill="#FDFDFD"/>
<path d="M96.8629 30.2357C97.6078 30.0927 98.4253 30.4864 98.778 31.1502C99.1559 31.8361 99.0502 32.77 98.47 33.3172C97.9185 33.9016 96.9632 34.0075 96.2631 33.6341C95.8351 33.3517 95.4528 32.9439 95.3597 32.4284C95.1054 31.4503 95.8432 30.3664 96.8629 30.2357Z" fill="#01AC50"/>
<path d="M63.0879 34.0949C63.5051 33.9881 63.9859 34.1417 64.2563 34.4745C64.5088 34.8275 64.4103 35.3016 64.2474 35.6723C63.8507 36.547 63.0637 37.1879 62.1989 37.5913C61.8291 37.368 61.4898 37.0899 61.2516 36.7298L61.2337 36.7713C60.8254 36.4835 60.5148 36.0907 60.231 35.6891C60.9132 35.5831 61.5426 35.2645 62.0816 34.847C62.4084 34.5875 62.6823 34.2423 63.0879 34.0949Z" fill="#4899D1"/>
<path d="M89.327 38.0776C91.5044 37.1023 93.5717 35.878 95.4564 34.425C95.4439 34.4736 95.4197 34.5707 95.4071 34.6192C95.1914 34.8178 95.0159 35.0535 94.8162 35.2671C92.2852 37.7281 89.3029 39.7971 85.9463 41.0029C84.461 41.5272 82.9058 41.8733 81.3309 41.9783C80.2225 41.9801 79.1061 42.0674 78.0075 41.8786C74.4468 41.4425 71.1789 39.7186 68.4186 37.5215C67.9432 37.149 67.5457 36.668 66.9915 36.4032C66.6361 36.2752 66.2162 36.1754 66.0299 35.8126C65.8007 35.3995 66.2851 34.8664 66.7283 35.0306C67.3595 35.2036 67.415 35.9998 67.9468 36.3114C71.0992 38.4563 74.8336 39.768 78.6557 40.0434C82.3077 40.3135 85.9929 39.5456 89.327 38.0776Z" fill="#FBAA29"/>
<path d="M70.5925 12.0751C70.4591 12.0733 70.3266 12.0733 70.1941 12.0724C70.1126 12.6012 70.1806 13.1387 70.1583 13.671C70.1726 13.9146 70.1108 14.1759 70.1959 14.4089C70.622 14.4619 71.0545 14.4222 71.4833 14.4345C72.2023 14.4178 72.9248 14.4672 73.6419 14.4036C73.6276 13.2261 73.6088 12.0504 73.6482 10.8746C73.8685 10.864 74.0887 10.849 74.3098 10.8261C74.3295 10.6036 74.3313 10.3803 74.3125 10.1579C74.0914 10.1367 73.8711 10.1225 73.6509 10.1102C73.641 9.78888 73.6437 9.46846 73.6437 9.14716C73.4297 9.0686 73.1755 9.03064 72.9696 9.1454C72.8961 9.85597 72.9696 10.5763 72.9418 11.2904C72.9678 11.5357 72.8594 11.8818 73.1719 11.9974C73.0868 12.0327 73.0036 12.068 72.9203 12.1024M70.5925 12.0751C70.5674 12.1016 70.5155 12.1536 70.4904 12.1801C70.3982 12.1907 70.3078 12.2013 70.2182 12.2119C70.2209 12.9331 70.1959 13.6542 70.237 14.3745C71.3669 14.3683 72.4986 14.401 73.6285 14.3622C73.6196 14.0144 73.5023 13.6728 73.5578 13.3241C73.6294 12.956 73.5014 12.587 73.5515 12.2154C73.3411 12.1757 73.1316 12.1351 72.9203 12.1024M70.5925 12.0751C70.6614 12.0795 70.7975 12.0874 70.8656 12.0918C70.896 12.2887 70.8647 12.5041 70.9363 12.6903C71.5908 12.7089 72.247 12.6956 72.9024 12.6947C72.9087 12.497 72.9114 12.2993 72.9203 12.1024M86.4763 12.7336C86.8577 12.7548 87.2409 12.7539 87.6241 12.7362C87.6367 12.3002 87.6403 11.8641 87.6223 11.4289C87.2409 11.4219 86.8613 11.421 86.4817 11.4289C86.4396 11.8623 86.4468 12.2993 86.4763 12.7345V12.7336ZM86.4763 12.7336C86.4468 12.2984 86.4396 11.8615 86.4817 11.4281C86.8613 11.421 87.2409 11.4219 87.6224 11.4281C87.6403 11.8632 87.6367 12.2993 87.6241 12.7353C87.241 12.753 86.8577 12.7539 86.4763 12.7327L86.4763 12.7336ZM60.231 35.6891C59.9767 35.6926 59.726 35.7261 59.4762 35.7623C58.9247 35.7147 58.3624 35.5902 57.9175 35.2477C57.0955 34.6413 56.7419 33.6077 56.6703 32.6314C56.6873 32.6005 56.7204 32.5387 56.7374 32.5069C56.7356 32.3683 56.7303 32.2306 56.7222 32.0938C56.5798 31.9623 56.4635 31.8078 56.3739 31.6392C56.3301 31.6904 56.288 31.7416 56.2459 31.7946C56.1617 31.6225 56.1376 31.3983 55.9674 31.2826C55.7311 31.1158 55.5305 30.9084 55.3407 30.6939C54.9754 30.2207 54.4024 29.9683 53.9924 29.5366C53.9315 29.8562 53.8563 30.174 53.7685 30.4882C53.3075 30.5517 52.841 30.5191 52.3772 30.5111C52.353 28.4297 52.3736 26.3474 52.3665 24.2652C52.3871 23.2977 52.2957 22.2835 51.7908 21.4308C51.4703 20.8518 50.9366 20.3972 50.3126 20.1641C49.368 19.8093 48.3017 19.7696 47.3348 20.0626C46.4583 20.3663 45.7483 21.0151 45.2496 21.7751C45.203 21.7662 45.1099 21.7503 45.0634 21.7415C44.8449 21.2728 44.5799 20.7935 44.1403 20.4925C42.9862 19.5904 41.269 19.7351 40.08 20.4952C39.5464 20.79 39.2115 21.3099 38.7737 21.7124C38.7496 21.7654 38.7272 21.8192 38.7048 21.8739C38.6582 21.3478 38.7048 20.745 38.3073 20.331C37.9751 19.9214 37.4012 19.7828 36.8971 19.9117C36.3412 20.0185 35.9463 20.5428 35.8783 21.0795C35.7896 21.4264 35.7932 21.7857 35.8004 22.1414C35.8013 24.9969 35.7995 27.8533 35.8013 30.7089C35.8263 31.1891 35.8854 31.7169 36.2364 32.0841C36.7333 32.5784 37.5677 32.6005 38.1757 32.3021C38.7075 32.0064 38.8758 31.3568 38.8454 30.7936C38.8391 29.0273 38.8463 27.2602 38.8418 25.493C38.8463 24.9095 38.917 24.3049 39.2223 23.7929C39.516 23.2086 40.1149 22.7919 40.7631 22.6869C41.303 22.603 41.8814 22.8352 42.184 23.2889C42.4857 23.6949 42.5502 24.2104 42.5815 24.6977C42.5806 26.7897 42.5806 28.8817 42.5815 30.9728C42.6182 31.4344 42.7436 31.9623 43.1536 32.2404C43.7186 32.5926 44.5217 32.6031 45.0678 32.2095C45.5164 31.8564 45.6247 31.2403 45.6059 30.7062C45.6005 28.9973 45.6068 27.2893 45.6032 25.5813C45.5871 25.1373 45.6131 24.6862 45.7635 24.2634C46.0124 23.4425 46.76 22.7134 47.6598 22.6781C48.0904 22.6348 48.522 22.8193 48.8219 23.1177C49.1979 23.5555 49.3054 24.1469 49.3546 24.7021C49.3636 26.8206 49.3501 28.9391 49.3609 31.0567C49.3609 31.573 49.599 32.138 50.1067 32.3489C50.4183 32.4478 50.7415 32.5431 51.0709 32.5519C51.8714 32.4857 52.6754 32.5219 53.4785 32.5131C53.6709 32.4699 53.6808 32.6949 53.696 32.8273C53.8214 34.1382 54.2636 35.464 55.1724 36.4544C56.0838 37.5012 57.4671 38.0882 58.8566 38.128C59.9946 38.2454 61.146 38.0185 62.1989 37.5913M60.231 35.6891C60.5148 36.0907 60.8254 36.4835 61.2337 36.7713L61.2516 36.7298C61.4898 37.0899 61.8291 37.368 62.1989 37.5913M60.231 35.6891C60.9132 35.5831 61.5426 35.2645 62.0816 34.847C62.4084 34.5875 62.6823 34.2423 63.0879 34.0949C63.5051 33.9881 63.9859 34.1417 64.2563 34.4745C64.5088 34.8275 64.4103 35.3016 64.2474 35.6723C63.8507 36.547 63.0637 37.1879 62.1989 37.5913M61.7763 30.2666C61.8327 30.3011 61.9455 30.3708 62.0019 30.4052C61.9285 30.5332 61.847 30.6568 61.762 30.7786C62.1049 31.0408 62.4737 31.2791 62.7602 31.6083C62.9653 31.822 63.1327 32.0806 63.387 32.243C63.6672 32.3498 63.977 32.3339 64.2733 32.3445C64.6547 32.0779 64.6968 31.566 64.6879 31.144C64.7299 29.9162 64.3691 28.6672 63.6341 27.6715C62.9106 26.6537 61.787 25.9255 60.5524 25.6731C59.5389 25.4347 58.4779 25.5274 57.4796 25.7896L57.4725 25.8231M61.7763 30.2666C61.6348 29.1721 60.8084 28.157 59.6839 27.9425M61.7763 30.2666C61.7825 30.3275 61.796 30.4485 61.8022 30.5094C60.1083 30.5226 58.4135 30.527 56.7186 30.5094C56.8234 29.8306 57.1215 29.18 57.5808 28.6637L57.5808 28.6645M59.6839 27.9425C59.3885 27.8675 59.0769 27.8701 58.7886 27.7721C58.2389 27.1834 57.7017 26.5672 57.0329 26.1038C57.169 26.0579 57.3051 26.0129 57.4429 25.9679C57.4501 25.9317 57.4653 25.8593 57.4725 25.8231M59.6839 27.9425C58.9247 27.8754 58.1055 28.0961 57.5808 28.6645M57.4725 25.8231C57.0741 25.9132 56.715 26.1135 56.3605 26.306V26.3068C55.1652 27.0112 54.3872 28.2453 53.9924 29.5375C54.4024 29.9692 54.9754 30.2216 55.3407 30.6947C55.5305 30.9092 55.7311 31.1167 55.9674 31.2835C56.1376 31.3991 56.1617 31.6233 56.2459 31.7955C56.288 31.7425 56.3301 31.6913 56.3739 31.6401C56.4635 31.8087 56.5798 31.9632 56.7222 32.0947C56.7303 32.2315 56.7356 32.3692 56.7374 32.5078C59.0241 32.5237 61.3116 32.5007 63.5991 32.5149C63.8373 32.529 64.0656 32.4557 64.2733 32.3454C63.977 32.3348 63.6672 32.3507 63.387 32.2439C63.1327 32.0815 62.9653 31.8228 62.7602 31.6092C62.4737 31.28 62.1049 31.0416 61.762 30.7795C61.847 30.6577 61.9285 30.5341 62.0019 30.4061C61.9455 30.3717 61.8327 30.3019 61.7763 30.2675C61.7825 30.3284 61.796 30.4494 61.8022 30.5103C60.1083 30.5226 58.4135 30.527 56.7186 30.5103C56.8234 29.8315 57.1215 29.1809 57.5808 28.6645M17.869 1.15624C18.0946 1.08474 18.322 0.997352 18.562 1.00088C22.7118 1.00088 26.8616 1.00441 31.0114 1C31.7679 1.03354 32.5469 1.03089 33.2595 1.31865C33.6902 1.46518 34.0053 1.80149 34.35 2.07689C38.8365 5.92017 43.3104 9.77845 47.7968 13.6226C48.0744 13.8901 48.334 14.2414 48.2955 14.6457C48.3322 14.9299 48.1021 15.1479 47.8846 15.2936C47.4387 15.5487 46.906 15.5248 46.4091 15.5195C41.5448 15.5186 36.6797 15.5178 31.8154 15.5195C31.6444 15.5133 31.4474 15.5337 31.3176 15.4012C27.4901 12.0232 23.6411 8.66801 19.8083 5.29522C19.2057 4.93508 18.4322 4.73294 17.7481 4.98539C17.1617 5.17605 16.74 5.64124 16.2852 6.02698C13.0074 8.98049 9.73682 11.9393 6.43757 14.8707C6.2791 15.0164 6.10809 15.147 5.94246 15.2856C6.08661 15.3297 6.23702 15.3527 6.38922 15.3483C7.76264 15.3421 9.13696 15.3501 10.5104 15.3448C10.9213 15.3412 11.3439 15.4533 11.6752 15.6987C12.0441 15.9988 12.2768 16.4623 12.301 16.9327C12.3153 18.5516 12.2849 20.1722 12.3153 21.7911C12.2786 21.9888 12.5499 21.8917 12.66 21.9218C14.551 21.9138 16.4419 21.9306 18.3328 21.9129C18.3534 20.2835 18.3337 18.654 18.3426 17.0245C18.365 16.4984 18.6085 15.9626 19.0472 15.6475C19.5056 15.3651 20.0975 15.2503 20.6105 15.4586C21.3178 15.6643 21.7278 16.4164 21.7037 17.1146C21.7063 21.6437 21.7019 26.1737 21.7054 30.7037C21.7063 31.2757 21.4879 31.8954 20.9838 32.2193C20.5836 32.4559 20.0858 32.5751 19.6301 32.4391C18.8843 32.3253 18.3793 31.597 18.3453 30.8856C18.3301 28.9613 18.3561 27.037 18.3319 25.1127C16.3765 25.0968 14.4211 25.1057 12.4658 25.1074C12.267 25.0624 12.3207 25.2972 12.3037 25.4093C12.3037 27.0864 12.3028 28.7636 12.3037 30.4407C12.3252 30.9138 12.2733 31.4152 11.9903 31.8151C11.4111 32.6889 9.9329 32.7198 9.31334 31.8768C9.05548 31.5467 8.94715 31.1248 8.93999 30.7134C8.93462 26.4032 8.95163 22.093 8.93193 17.7837C8.23358 17.7739 7.53344 17.7678 6.83599 17.7837C6.33013 17.8499 5.8198 17.8172 5.31216 17.8234C4.29776 17.8234 3.28426 17.8251 2.27076 17.8234C1.83295 17.8251 1.34321 17.676 1.11759 17.2779C0.959114 17.0448 1.00119 16.7527 1.01731 16.4896C1.04238 16.0606 1.39603 15.7587 1.70223 15.4966C4.62455 12.8432 7.59164 10.2383 10.4916 7.56199C12.5544 5.68537 14.5957 3.78139 16.7248 1.97538C17.0856 1.6788 17.4061 1.29924 17.8681 1.15624H17.869ZM65.2949 9.14275C65.516 9.10126 65.7416 9.10303 65.9655 9.12951C65.9691 10.3212 65.9986 11.5154 65.9511 12.7062C65.7354 12.7018 65.5205 12.6983 65.3065 12.6886C65.2859 11.5066 65.3092 10.3247 65.2949 9.14275ZM73.0089 9.17982C72.9937 10.0457 72.9821 10.9117 72.9955 11.7785C73.1889 11.7688 73.4468 11.8985 73.6025 11.7467C73.6455 11.4148 73.6079 11.0794 73.6115 10.7466C73.8246 10.7431 74.0377 10.7387 74.2525 10.7369C74.2517 10.5745 74.2525 10.4112 74.2534 10.2497C74.0386 10.2452 73.8264 10.2426 73.6133 10.2382C73.6187 9.88333 73.6222 9.52849 73.6106 9.17364C73.4092 9.17188 73.2086 9.17453 73.0089 9.17982ZM78.7283 9.14098C78.944 9.1198 79.1911 9.05095 79.3899 9.16482C79.4123 10.9311 79.4141 12.7009 79.3899 14.4681C79.1705 14.4672 78.953 14.4637 78.7354 14.4557C78.722 12.6841 78.7354 10.9126 78.7291 9.14098H78.7283ZM83.8942 9.1454C84.1208 9.06772 84.3643 9.11803 84.598 9.13657C84.5881 10.9117 84.6212 12.6894 84.581 14.4637C84.3518 14.4645 84.1234 14.4654 83.8969 14.4698C83.8486 13.4856 83.8889 12.4988 83.8772 11.5137C83.5755 11.4731 83.2675 11.5181 82.9703 11.466C82.8995 11.2383 82.9166 10.9999 82.9533 10.7687C83.2568 10.7643 83.5612 10.7643 83.8665 10.7493C83.8987 10.2152 83.845 9.67855 83.8942 9.1454ZM54.5546 9.13833C54.7901 9.09773 55.0309 9.10303 55.2682 9.13657C55.2834 10.4085 55.2933 11.684 55.2637 12.9551C55.0318 12.9851 54.7973 12.9878 54.5663 12.9587C54.5412 11.6858 54.5627 10.4121 54.5546 9.13833ZM59.8111 9.13216C60.0376 9.11009 60.2668 9.11097 60.4951 9.13127C60.496 10.8896 60.4772 12.6488 60.5031 14.4072C60.2775 14.4893 60.0304 14.4866 59.8048 14.4116C59.8093 13.4918 59.8379 12.5712 59.7887 11.6531C59.555 11.6302 59.2918 11.7123 59.0787 11.6099C58.9739 11.4139 59.0518 11.1606 59.0393 10.9426C59.2837 10.9302 59.5299 10.9311 59.7761 10.9346C59.8513 10.3362 59.7967 9.73239 59.8111 9.13216ZM89.1542 14.4178C89.1301 12.655 89.1292 10.887 89.1551 9.12245C89.3664 9.11362 89.5777 9.11362 89.7908 9.12068C89.8266 10.8914 89.8033 12.6647 89.8025 14.4363C89.5876 14.4575 89.3584 14.5087 89.1542 14.4178ZM51.9985 9.3034C52.6172 9.16128 53.3209 9.44022 53.5931 10.0219C53.8626 10.6433 53.7059 11.5049 53.072 11.8518C52.4148 12.2684 51.3798 12.0045 51.1005 11.2568C50.7173 10.5127 51.1793 9.5073 51.9985 9.3034ZM52.1776 10.0175C51.6207 10.1517 51.5616 11.0361 52.0818 11.2586C52.4193 11.4775 52.8508 11.1933 52.944 10.849C53.1105 10.4156 52.6628 9.83214 52.1776 10.0175ZM64.1999 9.22043C64.4139 9.21336 64.6297 9.21601 64.8454 9.23102C64.866 10.0634 64.8454 10.8958 64.8571 11.7282C64.8445 11.8597 64.875 12.0089 64.8007 12.128C64.6467 12.1545 64.4891 12.1333 64.336 12.1342C64.345 12.6224 64.5679 13.0849 64.9538 13.3921C65.2447 13.6533 65.6235 13.7743 65.9807 13.9199C65.8822 14.1044 65.7909 14.2986 65.6396 14.4478C65.1749 14.4054 64.7684 14.1071 64.4085 13.8334C64.2241 13.7125 64.1104 13.3506 63.8489 13.4494C63.4747 13.9614 62.8981 14.3145 62.2803 14.4637C62.138 14.2995 62.0135 14.1212 61.9312 13.9208C62.4549 13.739 62.9885 13.4883 63.3055 13.0152C63.4944 12.8015 63.4971 12.5102 63.5795 12.2534C63.8149 12.2613 64.0522 12.2551 64.2876 12.2287C64.0755 11.7538 64.2205 11.2233 64.1802 10.7228C63.8651 10.7131 63.5508 10.7192 63.2374 10.7007C63.2177 10.4721 63.2213 10.2426 63.2455 10.0157C63.5517 9.99279 63.8597 9.99985 64.1668 9.99632C64.1748 9.73769 64.1802 9.47817 64.1999 9.22043ZM69.6614 9.31399C69.8861 9.26456 70.1171 9.26721 70.3436 9.31664C70.3472 9.86744 70.3212 10.4191 70.3606 10.9691C71.118 11.0291 71.8737 10.9373 72.6249 10.8481C72.6464 11.0662 72.6419 11.2868 72.5944 11.5022C71.6257 11.6549 70.6319 11.7008 69.6551 11.6072C69.6667 10.8428 69.6587 10.0784 69.6614 9.31399ZM77.6959 10.8773C77.7729 10.3238 77.6342 9.75181 77.7873 9.21072C77.9878 9.21336 78.1884 9.21601 78.3898 9.22043C78.3997 10.8755 78.405 12.5305 78.3862 14.1847C78.1642 14.198 77.9422 14.1962 77.7237 14.1609C77.7031 13.3073 77.7568 12.4511 77.6888 11.6002C77.4838 11.5975 77.2796 11.5949 77.0764 11.5905C77.0477 11.3583 77.0504 11.1244 77.0764 10.8931C77.2823 10.887 77.4882 10.8825 77.6959 10.8773ZM92.8618 9.41285C93.1008 9.36431 93.3667 9.3546 93.5995 9.43845C93.6299 9.58145 93.6147 9.72974 93.6219 9.87539C93.6067 10.3944 93.877 10.9011 94.2862 11.2206C94.6139 11.496 94.9944 11.699 95.3678 11.9065C95.2505 12.1051 95.1036 12.2843 94.9407 12.4493C94.5718 12.2551 94.1806 12.0883 93.8672 11.8111C93.6147 11.5949 93.4142 11.3283 93.1554 11.1209C92.825 11.7017 92.2431 12.1033 91.6343 12.362C91.3325 12.4714 91.2018 12.0707 91.038 11.9003C91.6396 11.541 92.3846 11.2409 92.6612 10.548C92.8528 10.1967 92.7937 9.78447 92.8618 9.41285ZM61.7763 9.47553C61.9392 9.3087 62.2275 9.41197 62.4406 9.40844C62.4567 10.044 62.4236 10.6804 62.4567 11.316C62.9321 11.3186 63.404 11.2409 63.8785 11.2136C63.8964 11.4395 64.0217 11.8509 63.6941 11.9056C63.0557 11.9603 62.4102 12.0433 61.7709 11.9541C61.7664 11.1279 61.7521 10.3009 61.7763 9.47553ZM81.4133 9.40668C81.6542 9.37843 81.8977 9.38019 82.1403 9.40844C82.1439 10.2426 82.0723 11.1394 82.4958 11.8977C82.75 12.2737 83.0625 12.6224 83.4591 12.8571C83.392 13.0628 83.2541 13.2402 83.0876 13.3788C82.8405 13.4124 82.6802 13.1749 82.5128 13.0363C82.2182 12.7839 82.0168 12.4529 81.7661 12.1625C81.4742 12.6938 81.0973 13.1864 80.5887 13.5324C80.3703 13.4274 80.1849 13.2605 80.0703 13.0496C80.2646 12.7556 80.6218 12.5941 80.8287 12.2984C81.5055 11.4934 81.4241 10.3865 81.4133 9.40668ZM75.8068 9.55673C76.0351 9.54614 76.2652 9.54614 76.4935 9.58233C76.5034 10.3865 76.4156 11.2409 76.7738 11.9895C76.9573 12.3178 77.1919 12.6188 77.4694 12.8757C77.3235 13.0549 77.1847 13.3082 76.9349 13.3444C76.5822 13.099 76.3762 12.6912 76.1399 12.3425C75.8704 12.7689 75.6403 13.2376 75.2401 13.5651C75.0351 13.4336 74.7817 13.325 74.6921 13.0814C75.2446 12.5544 75.626 11.8553 75.7316 11.1023C75.8265 10.5904 75.7057 10.0669 75.8068 9.55673ZM87.6411 9.57527C87.8704 9.57086 88.1354 9.48435 88.3431 9.60881C88.361 10.8755 88.3753 12.1466 88.335 13.4132C87.4818 13.3885 86.6214 13.4627 85.7735 13.37C85.7771 12.1042 85.7807 10.8393 85.7717 9.57351C85.9982 9.55055 86.2265 9.55144 86.4548 9.57615C86.4566 9.96189 86.4504 10.3485 86.4701 10.7343C86.8515 10.7828 87.2374 10.7696 87.6206 10.744C87.6412 10.3547 87.6206 9.96454 87.6411 9.57527ZM56.5351 9.62029C57.2522 9.59646 57.9703 9.61146 58.6883 9.61058C59.0733 9.58057 58.8763 10.0696 58.9113 10.2973C58.3445 10.3503 57.7742 10.3044 57.2066 10.3317C57.186 10.5851 57.1869 10.8402 57.2084 11.0944C57.7312 11.1156 58.2541 11.0988 58.7779 11.097C58.8235 11.3354 58.8199 11.5799 58.7877 11.82C58.2621 11.8156 57.7357 11.8156 57.2102 11.8209C57.1842 12.1113 57.1851 12.4034 57.2093 12.6938C57.9219 12.738 58.6283 12.6303 59.3356 12.5756C59.3706 12.7812 59.3768 12.9904 59.3652 13.1988C58.4323 13.4044 57.4653 13.3868 56.5163 13.3373C56.5315 12.0989 56.4948 10.8587 56.5351 9.62029ZM70.8996 13.3267C70.9005 13.4671 70.9058 13.6083 70.9157 13.7487C71.5684 13.7363 72.2264 13.7831 72.8773 13.7275C72.9257 13.5986 72.897 13.4574 72.9024 13.3241C72.2345 13.3064 71.5666 13.3029 70.8996 13.3267ZM51.7066 12.6153C51.9385 12.6179 52.2581 12.482 52.4283 12.693C52.4632 13.0028 52.4014 13.317 52.4471 13.6277C52.4775 13.6428 52.5384 13.6745 52.5688 13.6895C53.5125 13.7151 54.4579 13.6648 55.4007 13.716C55.4025 13.919 55.4016 14.1229 55.3989 14.3268C54.175 14.3789 52.9457 14.3498 51.7201 14.3427C51.661 13.769 51.7021 13.1908 51.7066 12.6153ZM90.7882 13.1423C92.2297 13.1343 93.6711 13.1449 95.1126 13.137C95.2737 13.1493 95.4573 13.1061 95.6059 13.189C95.6471 13.3779 95.6247 13.573 95.6292 13.7654C94.7768 13.8528 93.9147 13.7813 93.0587 13.8043C92.3013 13.8008 91.543 13.8096 90.7855 13.7999C90.7488 13.5818 90.7497 13.3594 90.7882 13.1423ZM67.0005 18.3387C67.1258 17.8938 67.535 17.5619 67.9826 17.4613C68.4437 17.4039 68.9612 17.4145 69.3435 17.712C69.7769 18.0465 69.9192 18.6265 69.895 19.1473C69.904 19.6839 69.8673 20.2224 69.9156 20.7582C70.3892 20.767 70.8691 20.7185 71.3392 20.7926C71.7779 20.8712 72.1432 21.2587 72.1324 21.7089C72.1691 22.1255 72.0787 22.6525 71.6373 22.8317C71.0939 23.0532 70.4842 23.0108 69.9076 23.0356C69.8735 25.0049 69.904 26.9759 69.8923 28.9452C69.8986 29.2515 69.9675 29.6646 70.3158 29.7653C70.7259 29.8474 71.1691 29.7255 71.5621 29.9109C72.0384 30.1051 72.1897 30.6806 72.1253 31.144C72.1154 31.6269 71.7752 32.062 71.3311 32.2439C70.8996 32.4372 70.417 32.4548 69.955 32.5105C69.1806 32.4398 68.3264 32.3851 67.7149 31.852C67.0417 31.257 66.8653 30.3231 66.8635 29.4713C66.859 27.3281 66.8796 25.1849 66.8536 23.0417C66.4534 22.9941 66.0317 23.01 65.6557 22.8564C65.166 22.5748 65.114 21.9348 65.2233 21.4414C65.2994 21.1024 65.5921 20.8376 65.9359 20.7767C66.2386 20.7344 66.5456 20.7529 66.8509 20.7547C66.9288 19.9514 66.739 19.1181 67.0005 18.3387ZM28.3621 19.902C29.8241 19.7528 31.4017 20.1112 32.5065 21.1069C33.9471 22.37 34.5156 24.3578 34.4601 26.208C34.5031 27.4561 34.2622 28.7228 33.7152 29.8527C33.1681 30.9101 32.2272 31.8025 31.0641 32.1609C30.3918 32.4178 29.663 32.4469 28.953 32.5158C28.089 32.4398 27.1928 32.3763 26.4058 31.9817C25.5123 31.6004 24.8023 30.881 24.3224 30.0574C23.787 29.1315 23.5551 28.0687 23.462 27.0165C23.385 25.8037 23.4512 24.5582 23.8828 23.4089C24.1791 22.6269 24.5883 21.8589 25.2195 21.2878C26.0378 20.4519 27.1955 19.985 28.3621 19.902ZM28.4507 22.4539C27.5509 22.6445 26.9555 23.4469 26.7201 24.2819C26.378 25.5018 26.3789 26.8153 26.7227 28.0343C26.9331 28.7131 27.3369 29.3831 27.9887 29.7255C28.7471 30.1325 29.7829 30.0098 30.3864 29.3875C30.8734 28.9505 31.1465 28.3282 31.2772 27.7024C31.5029 26.7544 31.5154 25.7587 31.3202 24.8045C31.1931 24.093 30.903 23.3701 30.3354 22.889C29.8304 22.4459 29.1007 22.3162 28.4507 22.4539ZM74.3287 21.151C75.2741 20.2957 76.5741 19.9408 77.8302 19.8737C78.8572 19.849 79.9065 19.9346 80.8788 20.2807C81.7741 20.5958 82.5835 21.2693 82.8736 22.1838C83.1055 22.8546 83.0168 23.5705 83.0338 24.266C83.0329 25.8231 83.0338 27.3811 83.0329 28.9391C83.0177 29.5658 83.1449 30.1845 83.298 30.7901C83.3929 31.2111 83.34 31.709 83.0222 32.0312C82.3462 32.8203 80.8913 32.5581 80.458 31.6445C80.2897 31.3541 80.2664 31.016 80.2019 30.6956C79.876 30.8863 79.6656 31.2067 79.3693 31.4318C78.6101 32.0462 77.6494 32.4142 76.6681 32.4619C76.2214 32.559 75.7674 32.4743 75.3278 32.3825C74.249 32.1362 73.3322 31.3038 72.9722 30.2755C72.7413 29.6814 72.7851 29.0379 72.8048 28.4156C72.8782 27.4314 73.4208 26.4816 74.2866 25.9714C75.4451 25.2741 76.84 25.1973 78.1517 25.0243C78.6772 24.9369 79.2753 24.9554 79.7104 24.6076C80.0426 24.2387 80.1303 23.6552 79.8931 23.2156C79.6853 22.784 79.218 22.543 78.7632 22.4459C77.9422 22.3117 77.0245 22.445 76.4022 23.0303C75.9375 23.3948 75.6492 23.9853 75.0565 24.1742C74.3179 24.4223 73.4486 23.8088 73.4674 23.0347C73.3966 22.3082 73.8103 21.6321 74.3287 21.151ZM76.5177 27.6424C75.7809 28.0007 75.5722 29.0679 76.1059 29.6752C76.5437 30.1775 77.2895 30.3258 77.926 30.1845C78.7614 30.0618 79.4991 29.4846 79.8322 28.7228C80.107 28.0678 80.0059 27.3546 80.0229 26.667C78.9494 27.2911 77.6046 27.0651 76.5177 27.6424ZM84.8952 20.361C85.3169 19.9073 86.0546 19.7113 86.6214 20.0105C86.9625 20.1677 87.1532 20.5075 87.3269 20.8191C87.8766 21.7786 88.3467 22.7822 88.925 23.7258C89.3673 22.9508 89.7783 22.159 90.208 21.3779C90.4542 20.9497 90.6432 20.4678 91.0272 20.1368C91.4409 19.8296 92.0479 19.7713 92.4974 20.0406C92.9826 20.2912 93.2441 20.8306 93.2736 21.354C93.253 21.8121 93.1133 22.2641 92.8519 22.6454C92.1903 23.7797 91.4785 24.8866 90.8357 26.0306C91.0899 26.6211 91.491 27.141 91.799 27.7077C92.2315 28.4315 92.6675 29.1536 93.1008 29.8765C93.5279 30.5535 93.4849 31.5563 92.8671 32.1097C92.3657 32.5917 91.491 32.6332 90.9852 32.1362C90.5769 31.6904 90.3316 31.1308 90.0227 30.6188C89.6494 29.9533 89.2984 29.2754 88.9071 28.6204C88.8624 28.5101 88.7406 28.5268 88.6475 28.518C88.2097 29.4802 87.6224 30.3681 87.1335 31.3056C86.8971 31.7531 86.6285 32.2615 86.0985 32.416C85.6929 32.6049 85.2318 32.4637 84.8764 32.2377C84.4046 31.9614 84.2031 31.3983 84.1754 30.8836C84.2085 30.4855 84.3911 30.1228 84.5971 29.7873C85.3196 28.6151 86.0099 27.4243 86.7387 26.2565C86.9204 26.0041 86.676 25.7534 86.5524 25.5415C86.0081 24.6129 85.4646 23.6835 84.9113 22.761C84.7403 22.4494 84.504 22.1582 84.4556 21.7971C84.3535 21.2808 84.5639 20.7555 84.8952 20.361ZM96.8629 30.2357C97.6078 30.0927 98.4253 30.4864 98.778 31.1502C99.1559 31.8361 99.0502 32.77 98.47 33.3172C97.9185 33.9016 96.9632 34.0075 96.2631 33.6341C95.8351 33.3517 95.4528 32.9439 95.3597 32.4284C95.1054 31.4503 95.8432 30.3664 96.8629 30.2357ZM89.327 38.0776C91.5045 37.1023 93.5717 35.878 95.4564 34.425C95.4439 34.4736 95.4197 34.5707 95.4071 34.6192C95.1914 34.8178 95.0159 35.0535 94.8162 35.2671C92.2852 37.7281 89.3029 39.7971 85.9463 41.0029C84.461 41.5272 82.9058 41.8733 81.3309 41.9783C80.2225 41.9801 79.1061 42.0674 78.0075 41.8786C74.4468 41.4425 71.1789 39.7186 68.4186 37.5215C67.9432 37.149 67.5457 36.668 66.9915 36.4032C66.6361 36.2752 66.2162 36.1754 66.0299 35.8126C65.8007 35.3995 66.2851 34.8664 66.7283 35.0306C67.3595 35.2036 67.415 35.9998 67.9468 36.3114C71.0992 38.4563 74.8336 39.768 78.6557 40.0434C82.3077 40.3135 85.9929 39.5456 89.327 38.0776Z" stroke="#FBAA29" stroke-width="0.09" stroke-miterlimit="10.43"/>
</svg>
