<svg width="26" height="26" viewBox="0 0 26 26" fill="none" xmlns="http://www.w3.org/2000/svg">
<mask id="mask0_24_704" style="mask-type:luminance" maskUnits="userSpaceOnUse" x="0" y="0" width="26" height="26">
<path d="M20.9746 0H5.02539C2.24994 0 0 2.24994 0 5.02539V20.9746C0 23.7501 2.24994 26 5.02539 26H20.9746C23.7501 26 26 23.7501 26 20.9746V5.02539C26 2.24994 23.7501 0 20.9746 0Z" fill="white"/>
</mask>
<g mask="url(#mask0_24_704)">
<path d="M26.2988 -0.296875H-0.287109V26.2891H26.2988V-0.296875Z" fill="#D84148"/>
<path d="M5.3905 9.16895C3.90201 9.16895 3.29785 9.18022 3.29785 9.18022V16.8881H4.49792V14.5344H5.57482C5.57482 14.5344 7.24417 14.5187 7.24417 12.865V10.8422C7.24417 10.8422 7.42112 9.16895 5.3905 9.16895ZM6.0905 12.6035C6.0905 13.3495 5.40568 13.2883 5.40568 13.2883H4.49792V10.3499C4.49792 10.3499 4.72866 10.3612 5.40958 10.3612C6.0905 10.3612 6.0905 11.0421 6.0905 11.0421V12.6035Z" fill="white"/>
<path d="M11.0856 9.16895H9.25101L7.89697 16.8881H9.18943L9.43534 15.5189H10.9008L11.1468 16.8881H12.4392L11.0856 9.16895ZM9.55851 14.3652L10.1683 10.7637L10.7781 14.3652H9.55895H9.55851Z" fill="white"/>
<path d="M16.2019 11.4727H17.4675C17.3968 10.9618 17.827 9.26517 15.6212 9.10339C13.0271 9.04918 12.9105 11.589 14.0364 12.7344C14.5594 13.3342 16.1598 13.9805 16.175 14.8882C16.2869 16.201 14.7078 16.0475 14.6826 15.1103V14.5959H13.3902C13.4053 15.0201 13.3277 15.5518 13.555 15.9274C13.7037 16.1724 14.0672 16.888 15.0365 16.9344C16.4673 17.1162 17.5395 16.3142 17.4679 14.9819C17.4145 14.4376 17.6769 14.2715 16.5905 13.1803C15.6979 12.3957 14.6674 11.9802 14.6674 11.088C14.6644 9.91573 16.1368 9.92787 16.1906 10.9189L16.2023 11.4727H16.2019Z" fill="white"/>
<path d="M21.4954 11.4727H22.7609C22.6902 10.9618 23.1205 9.26517 20.9146 9.10339C18.3206 9.04918 18.2039 11.589 19.3298 12.7344C19.8529 13.3342 21.4533 13.9805 21.4685 14.8882C21.5804 16.201 20.0012 16.0475 19.9761 15.1103V14.5959H18.6836C18.6988 15.0201 18.6212 15.5518 18.8484 15.9274C18.9972 16.1724 19.3606 16.888 20.33 16.9344C21.7608 17.1162 22.8329 16.3142 22.7614 14.9819C22.708 14.4376 22.9704 14.2715 21.884 13.1803C20.9914 12.3957 19.9609 11.9802 19.9609 11.088C19.9579 9.91573 21.4303 9.92787 21.4841 10.9189L21.4958 11.4727H21.4954Z" fill="white"/>
</g>
</svg>
