<svg width="20" height="20" viewBox="0 0 20 20" fill="none" xmlns="http://www.w3.org/2000/svg">
<g clip-path="url(#clip0_1_3750)">
<path d="M20 0H0V20H20V0Z" fill="#FAE100"/>
<path d="M9.98033 3.66772C6.01288 3.66772 2.79688 6.2096 2.79688 9.34694C2.79688 11.3883 4.15869 13.1774 6.20413 14.1784C6.05357 14.7386 5.66022 16.2103 5.58155 16.525C5.48389 16.9156 5.72397 16.9102 5.88267 16.8057C6.0061 16.723 7.85079 15.4683 8.64699 14.9271C9.07968 14.9909 9.52458 15.0248 9.98033 15.0248C13.9478 15.0248 17.1638 12.4829 17.1638 9.34694C17.1638 6.21096 13.9478 3.66772 9.98033 3.66772Z" fill="#371D1E"/>
<path d="M4.9685 8.30119H5.70773C5.70773 8.30119 5.7118 10.3317 5.70773 10.8051C5.70773 11.151 6.47681 11.155 6.47545 10.8105L6.47816 8.32832C6.47816 8.32832 6.72638 8.32967 7.21333 8.32967C7.67315 8.32967 7.67315 7.60672 7.21333 7.60672C6.69519 7.60672 4.96443 7.5918 4.96443 7.5918C4.53038 7.5918 4.53174 8.30119 4.96443 8.30119" fill="#FAE100"/>
<mask id="mask0_1_3750" style="mask-type:luminance" maskUnits="userSpaceOnUse" x="4" y="7" width="4" height="5">
<path d="M4.9685 8.30119H5.70773C5.70773 8.30119 5.7118 10.3317 5.70773 10.8051C5.70773 11.151 6.47681 11.155 6.47545 10.8105L6.47816 8.32832C6.47816 8.32832 6.72638 8.32967 7.21333 8.32967C7.67315 8.32967 7.67315 7.60672 7.21333 7.60672C6.69519 7.60672 4.96443 7.5918 4.96443 7.5918C4.53038 7.5918 4.53174 8.30119 4.96443 8.30119" fill="white"/>
</mask>
<g mask="url(#mask0_1_3750)">
<path d="M7.67583 7.5918H4.53442V11.155H7.67583V7.5918Z" fill="#FAE100"/>
</g>
<path d="M8.50734 8.43151L8.91832 9.72008H8.06108L8.50734 8.43151ZM8.04616 7.82792C7.86441 8.22805 7.20656 10.1202 6.98953 10.6221C6.83219 10.9842 7.51174 11.2799 7.66909 10.9178L7.81693 10.401H9.16925C9.16925 10.401 9.12314 10.4227 9.30218 10.8961C9.44732 11.2799 10.1499 11.0141 10.0048 10.6302C9.79726 10.0822 9.07838 8.10733 8.94681 7.82792C8.88713 7.69906 8.6701 7.60547 8.45986 7.60547C8.28624 7.60547 8.11669 7.66922 8.04481 7.82792" fill="#FAE100"/>
<mask id="mask1_1_3750" style="mask-type:luminance" maskUnits="userSpaceOnUse" x="6" y="7" width="5" height="5">
<path d="M8.50734 8.43151L8.91832 9.72008H8.06108L8.50734 8.43151ZM8.04616 7.82792C7.86441 8.22805 7.20656 10.1202 6.98953 10.6221C6.83219 10.9842 7.51174 11.2799 7.66909 10.9178L7.81693 10.401H9.16925C9.16925 10.401 9.12314 10.4227 9.30218 10.8961C9.44732 11.2799 10.1499 11.0141 10.0048 10.6302C9.79726 10.0822 9.07838 8.10733 8.94681 7.82792C8.88713 7.69906 8.6701 7.60547 8.45986 7.60547C8.28624 7.60547 8.11669 7.66922 8.04481 7.82792" fill="white"/>
</mask>
<g mask="url(#mask1_1_3750)">
<path d="M10.1513 7.60693H6.83081V11.2828H10.1513V7.60693Z" fill="#FAE100"/>
</g>
<path d="M10.2651 7.94592C10.2651 8.58885 10.2692 10.6614 10.2692 10.6614C10.2692 10.6614 10.2095 11.0738 10.5635 11.0738C10.9176 11.0738 11.7002 11.0697 12.0474 11.0697C12.3947 11.0697 12.3933 10.3305 12.0461 10.3305C11.6988 10.3305 11.0641 10.3264 11.0641 10.3264C11.0641 10.3264 11.0668 8.40981 11.0654 7.94321C11.0654 7.71805 10.8647 7.60547 10.6653 7.60547C10.4659 7.60547 10.2638 7.71941 10.2651 7.94457" fill="#FAE100"/>
<mask id="mask2_1_3750" style="mask-type:luminance" maskUnits="userSpaceOnUse" x="10" y="7" width="3" height="5">
<path d="M10.2651 7.94592C10.2651 8.58885 10.2692 10.6614 10.2692 10.6614C10.2692 10.6614 10.2095 11.0738 10.5635 11.0738C10.9176 11.0738 11.7002 11.0697 12.0474 11.0697C12.3947 11.0697 12.3933 10.3305 12.0461 10.3305C11.6988 10.3305 11.0641 10.3264 11.0641 10.3264C11.0641 10.3264 11.0668 8.40981 11.0654 7.94321C11.0654 7.71805 10.8647 7.60547 10.6653 7.60547C10.4659 7.60547 10.2638 7.71941 10.2651 7.94457" fill="white"/>
</mask>
<g mask="url(#mask2_1_3750)">
<path d="M12.3946 7.60693H10.2095V11.0739H12.3946V7.60693Z" fill="#FAE100"/>
</g>
<path d="M12.487 7.84417C12.4952 8.1263 12.4775 10.6763 12.4775 10.8649C12.4775 11.1633 13.2371 11.1619 13.2371 10.8649C13.2371 10.519 13.2371 9.86112 13.2371 9.86112L13.4596 9.68208L14.4348 11.0113C14.6315 11.2718 15.2514 10.8011 15.0547 10.542L14.0198 9.17886C14.0198 9.17886 14.7224 8.41928 14.9991 8.14393C15.1605 7.98388 14.66 7.4793 14.4986 7.64071C14.3426 7.79534 13.2412 8.89808 13.2412 8.89808C13.2412 8.89808 13.2507 8.20632 13.2412 7.82382C13.2371 7.67869 13.0594 7.60815 12.8763 7.60815C12.681 7.60815 12.4816 7.68818 12.4857 7.84417" fill="#FAE100"/>
<mask id="mask3_1_3750" style="mask-type:luminance" maskUnits="userSpaceOnUse" x="12" y="7" width="4" height="5">
<path d="M12.487 7.84417C12.4952 8.1263 12.4775 10.6763 12.4775 10.8649C12.4775 11.1633 13.2371 11.1619 13.2371 10.8649C13.2371 10.519 13.2371 9.86112 13.2371 9.86112L13.4596 9.68208L14.4348 11.0113C14.6315 11.2718 15.2514 10.8011 15.0547 10.542L14.0198 9.17886C14.0198 9.17886 14.7224 8.41928 14.9991 8.14393C15.1605 7.98388 14.66 7.4793 14.4986 7.64071C14.3426 7.79534 13.2412 8.89808 13.2412 8.89808C13.2412 8.89808 13.2507 8.20632 13.2412 7.82382C13.2371 7.67869 13.0594 7.60815 12.8763 7.60815C12.681 7.60815 12.4816 7.68818 12.4857 7.84417" fill="white"/>
</mask>
<g mask="url(#mask3_1_3750)">
<path d="M15.2514 7.48071H12.4775V11.2732H15.2514V7.48071Z" fill="#FAE100"/>
</g>
</g>
<defs>
<clipPath id="clip0_1_3750">
<rect width="20" height="20" rx="4" fill="white"/>
</clipPath>
</defs>
</svg>
