<svg width="48" height="48" viewBox="0 0 48 48" fill="none" xmlns="http://www.w3.org/2000/svg">
<g clip-path="url(#clip0_39_1193)">
<path d="M48 24.0002C48 31.3306 44.7136 37.8773 39.53 42.2921C35.3504 45.8544 29.9193 48 23.9932 48C18.067 48 12.6498 45.8544 8.46981 42.2921C3.28643 37.8909 0 31.3306 0 24.0002C0 10.7415 10.7523 0 23.9934 0C37.2344 0 48.0002 10.7415 48.0002 24.0002H48Z" fill="#EBEBEB"/>
<path d="M29.5922 23.3281C32.6807 20.2388 32.6807 15.23 29.5922 12.1407C26.5038 9.05137 21.4965 9.05137 18.408 12.1407C15.3196 15.23 15.3196 20.2388 18.408 23.3281C21.4965 26.4174 26.5038 26.4174 29.5922 23.3281Z" fill="white"/>
<path d="M39.5304 42.292C35.3508 45.8543 29.9197 47.9999 23.9936 47.9999C18.0674 47.9999 12.6502 45.8543 8.47021 42.292C9.66635 34.7826 16.156 29.0476 23.9936 29.0476C31.8311 29.0476 38.3343 34.7826 39.5304 42.292Z" fill="white"/>
</g>
<defs>
<clipPath id="clip0_39_1193">
<rect width="48" height="48" fill="white"/>
</clipPath>
</defs>
</svg>
