<svg width="32" height="47" viewBox="0 0 32 47" fill="none" xmlns="http://www.w3.org/2000/svg">
<g clip-path="url(#clip0_309_650)">
<path d="M4.65849 35.0567L4.57669 34.9388C1.66871 30.7884 0 26.2234 0 22.4104V1.31689L29.8528 18.447V39.6218C29.8528 43.3779 28.2249 46.0161 25.3865 46.8697L25.2924 46.8982L14.8139 47.0039L4.6544 35.0608L4.65849 35.0567Z" fill="#FFE156"/>
<path d="M4.65849 35.0567L4.57669 34.9388C1.66871 30.7884 0 26.2234 0 22.4104V1.31689L29.8528 18.447V39.6218C29.8528 43.3779 28.2249 46.0161 25.3865 46.8697L25.2924 46.8982L14.8139 47.0039L4.6544 35.0608L4.65849 35.0567Z" fill="url(#paint0_linear_309_650)"/>
<path d="M23.9468 44.3696L14.8343 44.4591L5.99998 34.0729C3.5419 30.5647 2.13086 26.6948 2.13086 23.4753V4.86963L27.726 19.5566V38.2395C27.726 41.4184 26.3517 43.6501 23.9509 44.3696H23.9468Z" fill="url(#paint1_linear_309_650)"/>
<path d="M1.3374 0.512207L31.1943 17.6464L1.3374 0.512207Z" fill="#5259A8"/>
<path d="M2.14315 0L0 1.31707L1.33742 2.08537L29.8528 18.4472L32 17.1301L2.14315 0Z" fill="url(#paint2_linear_309_650)"/>
<path d="M26.7809 46.2479C27.0959 46.0731 27.464 45.8576 27.8893 45.5771C27.8893 45.5771 27.8893 45.5771 27.8934 45.5771C27.7257 45.6706 27.5499 45.756 27.3699 45.8332C27.1818 45.9837 26.9854 46.1259 26.7769 46.2519L26.7809 46.2479Z" fill="#FD4A5F"/>
<path d="M29.8525 18.4471V39.6219C29.8525 42.3861 28.9691 44.5447 27.374 45.8292C27.554 45.752 27.7299 45.6666 27.8975 45.5731C28.1634 45.4268 28.417 45.2601 28.6542 45.0731C30.2902 43.7926 31.9957 41.0447 31.9957 38.2439V17.126L29.8525 18.443V18.4471Z" fill="url(#paint3_linear_309_650)"/>
<path d="M26.781 46.248C26.3556 46.4838 26.0243 46.6342 25.7871 46.7318C26.1388 46.5976 26.4701 46.4391 26.781 46.248Z" fill="white"/>
<path d="M18.6624 28.1097L18.2329 27.8658V24.8048C18.2329 23.4268 17.1041 21.6585 15.7217 20.8658L14.1348 19.9552C12.7483 19.1585 11.6235 19.6341 11.6235 21.0122V24.0731L11.1941 23.8292C10.7646 23.5813 10.417 23.7276 10.417 24.1544V30.4674C10.417 30.8943 10.7646 31.439 11.1941 31.687L18.6665 35.9756C19.0959 36.2235 19.4436 36.0772 19.4436 35.6504V29.3374C19.4436 28.9105 19.0959 28.3658 18.6665 28.1178L18.6624 28.1097ZM15.4436 31.8333L14.5356 31.313L13.6276 30.7926C13.4027 30.6626 13.2636 30.3414 13.374 30.2113L13.828 29.691L14.0693 29.4105C13.8567 29.1422 13.7176 28.817 13.7176 28.5406C13.7176 28.0935 14.0816 27.939 14.5315 28.1992C14.9814 28.4593 15.3454 29.0284 15.3454 29.4756C15.3454 29.752 15.2064 29.9146 14.9937 29.939L15.235 30.4959L15.689 31.5365C15.7994 31.7926 15.6603 31.9552 15.4354 31.8252L15.4436 31.8333ZM17.2554 27.3008L12.597 24.626V21.565C12.597 20.7235 13.2841 20.4349 14.1307 20.9187L15.7176 21.8292C16.5642 22.317 17.2513 23.3943 17.2513 24.2357V27.2967L17.2554 27.3008Z" fill="white"/>
</g>
<defs>
<linearGradient id="paint0_linear_309_650" x1="0" y1="24.1584" x2="29.8528" y2="24.1584" gradientUnits="userSpaceOnUse">
<stop stop-color="#B6E1FD"/>
<stop offset="0.56" stop-color="#E7F9FD"/>
<stop offset="0.87" stop-color="#B9E1FD"/>
</linearGradient>
<linearGradient id="paint1_linear_309_650" x1="42.1227" y1="-2.21167" x2="-11.5021" y2="48.5344" gradientUnits="userSpaceOnUse">
<stop stop-color="#2BA3C4"/>
<stop offset="0.04" stop-color="#2292B8"/>
<stop offset="0.09" stop-color="#1B86B0"/>
<stop offset="0.15" stop-color="#187FAB"/>
<stop offset="0.32" stop-color="#177EAA"/>
<stop offset="0.43" stop-color="#2E8AB3"/>
<stop offset="0.68" stop-color="#6BABCC"/>
<stop offset="1" stop-color="#C5DCF0"/>
</linearGradient>
<linearGradient id="paint2_linear_309_650" x1="29.1329" y1="34.8455" x2="11.8013" y2="0.621555" gradientUnits="userSpaceOnUse">
<stop stop-color="#2BA3C4"/>
<stop offset="0.04" stop-color="#2292B8"/>
<stop offset="0.09" stop-color="#1B86B0"/>
<stop offset="0.15" stop-color="#187FAB"/>
<stop offset="0.32" stop-color="#177EAA"/>
<stop offset="0.43" stop-color="#2E8AB3"/>
<stop offset="0.68" stop-color="#6BABCC"/>
<stop offset="1" stop-color="#C5DCF0"/>
</linearGradient>
<linearGradient id="paint3_linear_309_650" x1="41.8076" y1="40.0853" x2="19.6828" y2="24.185" gradientUnits="userSpaceOnUse">
<stop stop-color="#2BA3C4"/>
<stop offset="0.04" stop-color="#2292B8"/>
<stop offset="0.09" stop-color="#1B86B0"/>
<stop offset="0.15" stop-color="#187FAB"/>
<stop offset="0.32" stop-color="#177EAA"/>
<stop offset="0.43" stop-color="#2E8AB3"/>
<stop offset="0.68" stop-color="#6BABCC"/>
<stop offset="1" stop-color="#C5DCF0"/>
</linearGradient>
<clipPath id="clip0_309_650">
<rect width="32" height="47" fill="white"/>
</clipPath>
</defs>
</svg>
