<svg width="51" height="51" viewBox="0 0 51 51" fill="none" xmlns="http://www.w3.org/2000/svg">
<g clip-path="url(#clip0_96_7535)">
<path d="M45.6487 0.290039H5.97033C2.83645 0.290039 0.291992 2.81887 0.291992 5.93351V48.9294H39.9703V5.93351C39.9703 2.81307 42.5148 0.290039 45.6487 0.290039Z" fill="white" stroke="#6D6E70" stroke-linecap="round" stroke-linejoin="round"/>
<path d="M50.7083 18.1426H39.9644V5.6261C39.9644 2.67967 42.3687 0.290039 45.3334 0.290039C48.298 0.290039 50.7024 2.67967 50.7024 5.6261V18.1426H50.7083Z" fill="#E1E3E8" stroke="#6D6E70" stroke-linecap="round" stroke-linejoin="round"/>
<path d="M20.4782 9.21631H6.56543V23.0437H20.4782V9.21631Z" fill="#E1E3E8"/>
<path d="M35.0505 26.9009H6.56543V29.7545H35.0505V26.9009Z" fill="#E1E3E8"/>
<path d="M35.0505 32.376H6.56543V35.2296H35.0505V32.376Z" fill="#E1E3E8"/>
<path d="M21.6337 37.8569H6.56543V40.7106H21.6337V37.8569Z" fill="#E1E3E8"/>
<path d="M49.3419 40.8458C51.0035 33.7775 46.585 26.7088 39.473 25.0575C32.361 23.4061 25.2487 27.7974 23.5871 34.8657C21.9256 41.9341 26.344 49.0027 33.456 50.6541C40.568 52.3055 47.6804 47.9141 49.3419 40.8458Z" fill="#3A65B9"/>
<path d="M45.4032 39.9414C46.5608 35.0324 43.4951 30.1203 38.5558 28.9698C33.6165 27.8193 28.674 30.8661 27.5164 35.7751C26.3588 40.6841 29.4245 45.5962 34.3638 46.7467C39.3031 47.8972 44.2456 44.8503 45.4032 39.9414Z" fill="white"/>
<path d="M34.584 44.0518C34.2105 44.0518 33.837 43.9126 33.551 43.6284L30.2129 40.3107L32.2788 38.2575L34.584 40.5485L41.2428 33.9307L43.3087 35.9839L35.6169 43.6284C35.331 43.9126 34.9575 44.0518 34.584 44.0518Z" fill="#3A65B9"/>
</g>
<defs>
<clipPath id="clip0_96_7535">
<rect width="51" height="51" fill="white"/>
</clipPath>
</defs>
</svg>
