<svg width="52" height="47" viewBox="0 0 52 47" fill="none" xmlns="http://www.w3.org/2000/svg">
<path d="M23.4971 13C20.651 13 18.3411 15.2682 18.3411 18.0501V19.2795H15V32H32V19.2795H28.6589V18.0501C28.6589 15.2625 26.3432 13 23.5029 13H23.4971ZM22.5071 18.0501C22.5071 17.5134 22.949 17.0805 23.4971 17.0805C24.0451 17.0805 24.487 17.5134 24.487 18.0501V19.2795H22.5071V18.0501ZM27.8281 27.9253H19.1601V23.3657H27.8281V27.9253Z" fill="#DDDDDD"/>
<path d="M35.2923 22.2131L43.6461 30.678L52 22.2131L48.4722 18.6384L46.2426 20.8976C44.9585 9.15835 35.1159 0 23.1919 0C16.997 0 11.1761 2.44509 6.79457 6.88485C2.41303 11.3246 0 17.2228 0 23.5C0 36.4618 10.4071 47 23.1919 47C29.3867 47 35.2147 44.5549 39.5962 40.1152L36.0684 36.5405C32.6323 40.0222 28.0602 41.9454 23.1989 41.9454C13.1588 41.9454 4.99539 33.6736 4.99539 23.5C4.99539 18.5741 6.8863 13.9413 10.3294 10.4595C13.7655 6.97779 18.3376 5.05461 23.206 5.05461C32.4347 5.05461 40.083 12.0538 41.2472 21.0907L38.8271 18.6384L35.2993 22.2131H35.2923ZM43.6744 23.5L43.6461 23.5286L43.6179 23.5H43.6744Z" fill="#DDDDDD"/>
</svg>
