<svg width="144" height="34" viewBox="0 0 144 34" fill="none" xmlns="http://www.w3.org/2000/svg">
<path d="M62.274 20.344V22.84H71.14V26.896H48.78V22.84H57.49V20.344H53.174C51.77 20.344 50.912 19.408 50.912 17.952V10.984H64.016V9.32H50.938V5.316H68.8V12.83C68.8 13.87 68.202 14.676 67.032 14.676H55.696V16.34H70.126L67.864 20.344H62.274ZM83.28 7.942C83.28 8.618 83.228 8.93 82.994 9.528L82.708 10.178H85.048V4.796H88.948V18.082H85.048V13.87H82.084V11.582C80.784 14.234 78.964 17.146 77.118 19.642L73.894 17.614C74.804 16.444 75.636 15.274 76.39 14.104H72.49V10.672H78.34C78.6 10.126 78.834 9.606 79.042 9.086H72.75V5.394H83.28V7.942ZM87.492 21.41C87.492 21.592 87.466 21.748 87.44 21.904L94.876 25.726L92.978 29.236L84.944 24.972C82.682 26.428 79.25 28.274 77.04 29.314L75.22 25.596C77.326 24.634 80.394 23.074 81.954 21.982C82.526 21.592 82.708 21.202 82.708 20.5V18.862H87.492V21.41ZM94.408 4.64V19.746H90.404V4.64H94.408ZM112.58 13.35V18.992H108.602V15.846L107.328 18.238H98.2279C97.2139 18.238 96.6679 17.614 96.6679 16.548V5.16H107.354V8.54H100.932V10.1H106.782V13.116H100.932V14.858H108.602V4.796H112.58V9.658H114.27V4.64H118.326V18.992H114.27V13.35H112.58ZM116.064 19.928C117.494 19.928 118.248 20.708 118.248 22.164V28.95H113.568V23.802H99.9439V19.928H116.064ZM134.002 8.956C134.002 9.476 133.95 9.944 133.846 10.36L141.958 16.106L139.306 19.668L131.402 13.922C129.218 15.898 126.332 18.264 123.94 19.902L121.184 16.236C123.628 14.546 126.358 12.492 127.684 11.218C128.724 10.204 129.062 9.58 129.062 8.098V5.29H134.002V8.956ZM120.534 22.606H142.894V26.766H120.534V22.606Z" fill="#333333"/>
<path d="M0 0V15.9337C0 34 23.8918 9.59189 23.8918 9.59189L19.2237 9.2564L26.9037 7.19859L24.8459 14.8786L24.5104 10.2105C24.5104 10.2105 0 34 18.2571 34H34.0012V0H0Z" fill="#445B87"/>
</svg>
